<mxfile host="app.diagrams.net" modified="2021-10-04T08:21:18.353Z" agent="5.0 (Windows NT 10.0; Win64; x64) AppleWebKit/537.36 (KHTML, like Gecko) Chrome/94.0.4606.61 Safari/537.36" etag="bj-CDccxgMDmx_VjtpQy" version="15.3.3" type="github" pages="4">
  <diagram id="2RLYH7hiBHihqIIVTGHc" name="Page-1">
    <mxGraphModel dx="460" dy="736" grid="1" gridSize="10" guides="1" tooltips="1" connect="1" arrows="1" fold="1" page="1" pageScale="1" pageWidth="827" pageHeight="1169" math="0" shadow="0">
      <root>
        <mxCell id="0" />
        <mxCell id="1" parent="0" />
        <mxCell id="nruTfgEkKZ0GzLWo3d2O-3" value="" style="edgeStyle=orthogonalEdgeStyle;rounded=0;orthogonalLoop=1;jettySize=auto;html=1;exitX=0;exitY=0.25;exitDx=0;exitDy=0;entryX=1;entryY=0.5;entryDx=0;entryDy=0;" parent="1" source="nruTfgEkKZ0GzLWo3d2O-1" target="nruTfgEkKZ0GzLWo3d2O-2" edge="1">
          <mxGeometry relative="1" as="geometry" />
        </mxCell>
        <mxCell id="nruTfgEkKZ0GzLWo3d2O-9" style="edgeStyle=orthogonalEdgeStyle;rounded=0;orthogonalLoop=1;jettySize=auto;html=1;exitX=0;exitY=0.75;exitDx=0;exitDy=0;entryX=1;entryY=0.5;entryDx=0;entryDy=0;" parent="1" source="nruTfgEkKZ0GzLWo3d2O-1" target="nruTfgEkKZ0GzLWo3d2O-6" edge="1">
          <mxGeometry relative="1" as="geometry" />
        </mxCell>
        <mxCell id="nruTfgEkKZ0GzLWo3d2O-13" style="edgeStyle=orthogonalEdgeStyle;rounded=0;orthogonalLoop=1;jettySize=auto;html=1;exitX=0;exitY=0.5;exitDx=0;exitDy=0;entryX=1;entryY=0.5;entryDx=0;entryDy=0;" parent="1" source="nruTfgEkKZ0GzLWo3d2O-1" target="nruTfgEkKZ0GzLWo3d2O-12" edge="1">
          <mxGeometry relative="1" as="geometry">
            <mxPoint x="170" y="300" as="targetPoint" />
          </mxGeometry>
        </mxCell>
        <mxCell id="nruTfgEkKZ0GzLWo3d2O-1" value="斯台普斯中心" style="rounded=0;whiteSpace=wrap;html=1;" parent="1" vertex="1">
          <mxGeometry x="220" y="270" width="120" height="60" as="geometry" />
        </mxCell>
        <mxCell id="nruTfgEkKZ0GzLWo3d2O-2" value="比分牌" style="ellipse;whiteSpace=wrap;html=1;rounded=0;" parent="1" vertex="1">
          <mxGeometry x="60" y="180" width="104" height="60" as="geometry" />
        </mxCell>
        <mxCell id="nruTfgEkKZ0GzLWo3d2O-16" style="edgeStyle=orthogonalEdgeStyle;rounded=0;orthogonalLoop=1;jettySize=auto;html=1;exitX=1;exitY=0.5;exitDx=0;exitDy=0;entryX=0;entryY=0.5;entryDx=0;entryDy=0;" parent="1" source="nruTfgEkKZ0GzLWo3d2O-1" target="nruTfgEkKZ0GzLWo3d2O-4" edge="1">
          <mxGeometry relative="1" as="geometry">
            <mxPoint x="410" y="400" as="targetPoint" />
          </mxGeometry>
        </mxCell>
        <mxCell id="nruTfgEkKZ0GzLWo3d2O-19" style="edgeStyle=orthogonalEdgeStyle;rounded=0;orthogonalLoop=1;jettySize=auto;html=1;exitX=1;exitY=0.5;exitDx=0;exitDy=0;entryX=0;entryY=0.5;entryDx=0;entryDy=0;" parent="1" source="nruTfgEkKZ0GzLWo3d2O-4" target="nruTfgEkKZ0GzLWo3d2O-14" edge="1">
          <mxGeometry relative="1" as="geometry" />
        </mxCell>
        <mxCell id="nruTfgEkKZ0GzLWo3d2O-4" value="比赛数据对象" style="ellipse;whiteSpace=wrap;html=1;rounded=0;" parent="1" vertex="1">
          <mxGeometry x="410" y="270" width="110" height="60" as="geometry" />
        </mxCell>
        <mxCell id="nruTfgEkKZ0GzLWo3d2O-6" value="球员得分情况" style="ellipse;whiteSpace=wrap;html=1;rounded=0;" parent="1" vertex="1">
          <mxGeometry x="60" y="360" width="104" height="60" as="geometry" />
        </mxCell>
        <mxCell id="nruTfgEkKZ0GzLWo3d2O-12" value="比赛时间" style="ellipse;whiteSpace=wrap;html=1;rounded=0;" parent="1" vertex="1">
          <mxGeometry x="60" y="270" width="104" height="60" as="geometry" />
        </mxCell>
        <mxCell id="nruTfgEkKZ0GzLWo3d2O-14" value="&lt;blockquote style=&quot;margin: 0 0 0 40px ; border: none ; padding: 0px&quot;&gt;&lt;div&gt;&lt;span&gt;数据显示：&lt;/span&gt;&lt;/div&gt;比赛时间&lt;div&gt;&lt;span&gt;比分情况&lt;/span&gt;&lt;/div&gt;&lt;div&gt;&lt;span&gt;球员得分情况&lt;/span&gt;&lt;/div&gt;&lt;/blockquote&gt;" style="whiteSpace=wrap;html=1;aspect=fixed;align=left;" parent="1" vertex="1">
          <mxGeometry x="570" y="225" width="150" height="150" as="geometry" />
        </mxCell>
        <mxCell id="nruTfgEkKZ0GzLWo3d2O-15" value="各平台显示情况" style="text;html=1;align=center;verticalAlign=middle;resizable=0;points=[];autosize=1;strokeColor=none;fillColor=none;" parent="1" vertex="1">
          <mxGeometry x="595" y="380" width="100" height="20" as="geometry" />
        </mxCell>
        <mxCell id="nruTfgEkKZ0GzLWo3d2O-17" value="更新数据" style="text;html=1;align=center;verticalAlign=middle;resizable=0;points=[];autosize=1;strokeColor=none;fillColor=none;" parent="1" vertex="1">
          <mxGeometry x="350" y="280" width="60" height="20" as="geometry" />
        </mxCell>
        <mxCell id="nruTfgEkKZ0GzLWo3d2O-20" value="显示" style="text;html=1;align=center;verticalAlign=middle;resizable=0;points=[];autosize=1;strokeColor=none;fillColor=none;" parent="1" vertex="1">
          <mxGeometry x="524" y="280" width="40" height="20" as="geometry" />
        </mxCell>
        <mxCell id="nruTfgEkKZ0GzLWo3d2O-21" value="数据中心统计数据" style="text;html=1;align=center;verticalAlign=middle;resizable=0;points=[];autosize=1;strokeColor=none;fillColor=none;" parent="1" vertex="1">
          <mxGeometry x="225" y="340" width="110" height="20" as="geometry" />
        </mxCell>
      </root>
    </mxGraphModel>
  </diagram>
  <diagram id="Qo4ybewSBhENKjGYeFH-" name="Page-2">
    <mxGraphModel dx="1662" dy="762" grid="1" gridSize="10" guides="1" tooltips="1" connect="1" arrows="1" fold="1" page="1" pageScale="1" pageWidth="827" pageHeight="1169" math="0" shadow="0">
      <root>
        <mxCell id="FsPIQTjs6mZfuHH-jwkU-0" />
        <mxCell id="FsPIQTjs6mZfuHH-jwkU-1" parent="FsPIQTjs6mZfuHH-jwkU-0" />
        <mxCell id="FsPIQTjs6mZfuHH-jwkU-10" style="rounded=0;orthogonalLoop=1;jettySize=auto;html=1;exitX=1;exitY=0.25;exitDx=0;exitDy=0;entryX=0;entryY=0.5;entryDx=0;entryDy=0;dashed=1;" parent="FsPIQTjs6mZfuHH-jwkU-1" source="FsPIQTjs6mZfuHH-jwkU-2" target="FsPIQTjs6mZfuHH-jwkU-3" edge="1">
          <mxGeometry relative="1" as="geometry" />
        </mxCell>
        <mxCell id="FsPIQTjs6mZfuHH-jwkU-12" style="edgeStyle=none;rounded=0;orthogonalLoop=1;jettySize=auto;html=1;exitX=1;exitY=0.5;exitDx=0;exitDy=0;dashed=1;" parent="FsPIQTjs6mZfuHH-jwkU-1" source="FsPIQTjs6mZfuHH-jwkU-2" target="FsPIQTjs6mZfuHH-jwkU-7" edge="1">
          <mxGeometry relative="1" as="geometry" />
        </mxCell>
        <mxCell id="FsPIQTjs6mZfuHH-jwkU-13" style="edgeStyle=none;rounded=0;orthogonalLoop=1;jettySize=auto;html=1;exitX=1;exitY=0.75;exitDx=0;exitDy=0;entryX=0;entryY=0.5;entryDx=0;entryDy=0;dashed=1;" parent="FsPIQTjs6mZfuHH-jwkU-1" source="FsPIQTjs6mZfuHH-jwkU-2" target="FsPIQTjs6mZfuHH-jwkU-8" edge="1">
          <mxGeometry relative="1" as="geometry" />
        </mxCell>
        <mxCell id="FsPIQTjs6mZfuHH-jwkU-2" value="主题对象&lt;br&gt;Subject" style="whiteSpace=wrap;html=1;aspect=fixed;" parent="FsPIQTjs6mZfuHH-jwkU-1" vertex="1">
          <mxGeometry x="150" y="230" width="80" height="80" as="geometry" />
        </mxCell>
        <mxCell id="FsPIQTjs6mZfuHH-jwkU-3" value="用户A" style="ellipse;whiteSpace=wrap;html=1;aspect=fixed;" parent="FsPIQTjs6mZfuHH-jwkU-1" vertex="1">
          <mxGeometry x="400" y="110" width="80" height="80" as="geometry" />
        </mxCell>
        <mxCell id="FsPIQTjs6mZfuHH-jwkU-7" value="用户B" style="ellipse;whiteSpace=wrap;html=1;aspect=fixed;" parent="FsPIQTjs6mZfuHH-jwkU-1" vertex="1">
          <mxGeometry x="400" y="230" width="80" height="80" as="geometry" />
        </mxCell>
        <mxCell id="FsPIQTjs6mZfuHH-jwkU-8" value="用户C" style="ellipse;whiteSpace=wrap;html=1;aspect=fixed;" parent="FsPIQTjs6mZfuHH-jwkU-1" vertex="1">
          <mxGeometry x="400" y="340" width="80" height="80" as="geometry" />
        </mxCell>
        <mxCell id="FsPIQTjs6mZfuHH-jwkU-9" value="用户D" style="ellipse;whiteSpace=wrap;html=1;aspect=fixed;" parent="FsPIQTjs6mZfuHH-jwkU-1" vertex="1">
          <mxGeometry x="150" y="390" width="80" height="80" as="geometry" />
        </mxCell>
        <mxCell id="FsPIQTjs6mZfuHH-jwkU-14" value="Subject对象数据改变通知观察者" style="text;html=1;strokeColor=none;fillColor=none;align=center;verticalAlign=middle;whiteSpace=wrap;rounded=0;" parent="FsPIQTjs6mZfuHH-jwkU-1" vertex="1">
          <mxGeometry x="240" y="160" width="100" height="20" as="geometry" />
        </mxCell>
        <mxCell id="FsPIQTjs6mZfuHH-jwkU-15" value="用户D未订阅不会收到消息" style="text;html=1;strokeColor=none;fillColor=none;align=center;verticalAlign=middle;whiteSpace=wrap;rounded=0;" parent="FsPIQTjs6mZfuHH-jwkU-1" vertex="1">
          <mxGeometry x="150" y="480" width="80" height="20" as="geometry" />
        </mxCell>
        <mxCell id="FsPIQTjs6mZfuHH-jwkU-18" value="" style="strokeWidth=2;html=1;shape=mxgraph.flowchart.annotation_2;align=left;labelPosition=right;pointerEvents=1;direction=west;" parent="FsPIQTjs6mZfuHH-jwkU-1" vertex="1">
          <mxGeometry x="520" y="150" width="20" height="240" as="geometry" />
        </mxCell>
        <mxCell id="FsPIQTjs6mZfuHH-jwkU-19" value="观察者是订阅了主题对象的对象&lt;br&gt;主题对象数据改变会推送到观察者" style="text;html=1;align=center;verticalAlign=middle;resizable=0;points=[];autosize=1;strokeColor=none;fillColor=none;" parent="FsPIQTjs6mZfuHH-jwkU-1" vertex="1">
          <mxGeometry x="550" y="255" width="200" height="30" as="geometry" />
        </mxCell>
        <mxCell id="FsPIQTjs6mZfuHH-jwkU-23" style="edgeStyle=none;rounded=0;orthogonalLoop=1;jettySize=auto;html=1;exitX=1;exitY=0.25;exitDx=0;exitDy=0;entryX=0;entryY=0.25;entryDx=0;entryDy=0;entryPerimeter=0;" parent="FsPIQTjs6mZfuHH-jwkU-1" source="FsPIQTjs6mZfuHH-jwkU-20" target="FsPIQTjs6mZfuHH-jwkU-21" edge="1">
          <mxGeometry relative="1" as="geometry">
            <mxPoint x="400" y="722" as="targetPoint" />
          </mxGeometry>
        </mxCell>
        <mxCell id="FsPIQTjs6mZfuHH-jwkU-20" value="&lt;p style=&quot;margin: 0px ; margin-top: 4px ; text-align: center&quot;&gt;&lt;i&gt;&amp;lt;&amp;lt;Interface&amp;gt;&amp;gt;&lt;/i&gt;&lt;br&gt;&lt;b&gt;Subject&lt;/b&gt;&lt;/p&gt;&lt;hr size=&quot;1&quot;&gt;&lt;p style=&quot;margin: 0px ; margin-left: 4px&quot;&gt;+ registerObserver()&lt;/p&gt;&lt;p style=&quot;margin: 0px ; margin-left: 4px&quot;&gt;+ removeObserver()&lt;/p&gt;&lt;p style=&quot;margin: 0px ; margin-left: 4px&quot;&gt;+ notifyObservers()&lt;/p&gt;" style="verticalAlign=top;align=left;overflow=fill;fontSize=12;fontFamily=Helvetica;html=1;" parent="FsPIQTjs6mZfuHH-jwkU-1" vertex="1">
          <mxGeometry x="120" y="680" width="160" height="120" as="geometry" />
        </mxCell>
        <mxCell id="FsPIQTjs6mZfuHH-jwkU-21" value="&lt;p style=&quot;margin: 0px ; margin-top: 4px ; text-align: center&quot;&gt;&lt;i&gt;&amp;lt;&amp;lt;Interface&amp;gt;&amp;gt;&lt;/i&gt;&lt;br&gt;&lt;b&gt;Observer&lt;/b&gt;&lt;/p&gt;&lt;hr size=&quot;1&quot;&gt;&lt;p style=&quot;margin: 0px ; margin-left: 4px&quot;&gt;update()&lt;/p&gt;" style="verticalAlign=top;align=left;overflow=fill;fontSize=12;fontFamily=Helvetica;html=1;" parent="FsPIQTjs6mZfuHH-jwkU-1" vertex="1">
          <mxGeometry x="440" y="680" width="160" height="120" as="geometry" />
        </mxCell>
        <mxCell id="FsPIQTjs6mZfuHH-jwkU-25" value="一个主题对应多个观察者" style="text;html=1;align=center;verticalAlign=middle;resizable=0;points=[];autosize=1;strokeColor=none;fillColor=none;" parent="FsPIQTjs6mZfuHH-jwkU-1" vertex="1">
          <mxGeometry x="284" y="710" width="150" height="20" as="geometry" />
        </mxCell>
        <mxCell id="FsPIQTjs6mZfuHH-jwkU-26" value="1" style="text;html=1;align=center;verticalAlign=middle;resizable=0;points=[];autosize=1;strokeColor=none;fillColor=none;" parent="FsPIQTjs6mZfuHH-jwkU-1" vertex="1">
          <mxGeometry x="280" y="690" width="20" height="20" as="geometry" />
        </mxCell>
        <mxCell id="FsPIQTjs6mZfuHH-jwkU-27" value="n" style="text;html=1;align=center;verticalAlign=middle;resizable=0;points=[];autosize=1;strokeColor=none;fillColor=none;" parent="FsPIQTjs6mZfuHH-jwkU-1" vertex="1">
          <mxGeometry x="414" y="690" width="20" height="20" as="geometry" />
        </mxCell>
        <mxCell id="FsPIQTjs6mZfuHH-jwkU-28" value="&lt;p style=&quot;margin: 4px 0px 0px ; text-align: center&quot;&gt;&lt;b&gt;&lt;u&gt;ConcreteSubject&lt;/u&gt;&lt;/b&gt;&lt;br&gt;&lt;/p&gt;&lt;hr&gt;&lt;p style=&quot;margin: 0px 0px 0px 4px&quot;&gt;registerObserver() { ... }&lt;/p&gt;&lt;p style=&quot;margin: 0px 0px 0px 4px&quot;&gt;removeObserver() { ... }&lt;/p&gt;&lt;p style=&quot;margin: 0px 0px 0px 4px&quot;&gt;notifyObservers() { ... }&lt;/p&gt;&lt;p style=&quot;margin: 0px 0px 0px 4px&quot;&gt;&lt;br&gt;&lt;/p&gt;&lt;p style=&quot;margin: 0px 0px 0px 4px&quot;&gt;getState()&lt;/p&gt;&lt;p style=&quot;margin: 0px 0px 0px 4px&quot;&gt;setState()&lt;/p&gt;" style="verticalAlign=top;align=left;overflow=fill;fontSize=12;fontFamily=Helvetica;html=1;" parent="FsPIQTjs6mZfuHH-jwkU-1" vertex="1">
          <mxGeometry x="120" y="920" width="160" height="120" as="geometry" />
        </mxCell>
        <mxCell id="FsPIQTjs6mZfuHH-jwkU-32" value="" style="endArrow=block;dashed=1;endFill=0;endSize=12;html=1;entryX=0.5;entryY=1;entryDx=0;entryDy=0;exitX=0.5;exitY=0;exitDx=0;exitDy=0;" parent="FsPIQTjs6mZfuHH-jwkU-1" source="FsPIQTjs6mZfuHH-jwkU-28" target="FsPIQTjs6mZfuHH-jwkU-20" edge="1">
          <mxGeometry width="160" relative="1" as="geometry">
            <mxPoint x="330" y="930" as="sourcePoint" />
            <mxPoint x="490" y="930" as="targetPoint" />
          </mxGeometry>
        </mxCell>
        <mxCell id="FsPIQTjs6mZfuHH-jwkU-33" value="&lt;p style=&quot;margin: 0px ; margin-top: 4px ; text-align: center ; text-decoration: underline&quot;&gt;&lt;b&gt;ConcreteObserver&lt;/b&gt;&lt;/p&gt;&lt;hr&gt;&lt;p style=&quot;margin: 0px ; margin-left: 8px&quot;&gt;update()&lt;/p&gt;&lt;p style=&quot;margin: 0px ; margin-left: 8px&quot;&gt;&lt;br&gt;&lt;/p&gt;&lt;p style=&quot;margin: 0px ; margin-left: 8px&quot;&gt;// 其他方法&lt;/p&gt;" style="verticalAlign=top;align=left;overflow=fill;fontSize=12;fontFamily=Helvetica;html=1;" parent="FsPIQTjs6mZfuHH-jwkU-1" vertex="1">
          <mxGeometry x="440" y="920" width="160" height="120" as="geometry" />
        </mxCell>
        <mxCell id="FsPIQTjs6mZfuHH-jwkU-35" value="" style="endArrow=block;dashed=1;endFill=0;endSize=12;html=1;entryX=0.5;entryY=1;entryDx=0;entryDy=0;entryPerimeter=0;" parent="FsPIQTjs6mZfuHH-jwkU-1" target="FsPIQTjs6mZfuHH-jwkU-21" edge="1">
          <mxGeometry width="160" relative="1" as="geometry">
            <mxPoint x="520" y="920" as="sourcePoint" />
            <mxPoint x="680" y="920" as="targetPoint" />
          </mxGeometry>
        </mxCell>
        <mxCell id="FsPIQTjs6mZfuHH-jwkU-37" value="" style="endArrow=classic;html=1;" parent="FsPIQTjs6mZfuHH-jwkU-1" edge="1">
          <mxGeometry width="50" height="50" relative="1" as="geometry">
            <mxPoint x="440" y="935" as="sourcePoint" />
            <mxPoint x="280" y="935" as="targetPoint" />
          </mxGeometry>
        </mxCell>
        <mxCell id="FsPIQTjs6mZfuHH-jwkU-38" value="主题订阅" style="text;html=1;align=center;verticalAlign=middle;resizable=0;points=[];autosize=1;strokeColor=none;fillColor=none;" parent="FsPIQTjs6mZfuHH-jwkU-1" vertex="1">
          <mxGeometry x="329" y="910" width="60" height="20" as="geometry" />
        </mxCell>
        <mxCell id="FsPIQTjs6mZfuHH-jwkU-40" value="&lt;p style=&quot;margin: 0px ; margin-top: 4px ; text-align: center&quot;&gt;&lt;i&gt;&amp;lt;&amp;lt;Interface&amp;gt;&amp;gt;&lt;/i&gt;&lt;br&gt;&lt;b&gt;Subject&lt;/b&gt;&lt;/p&gt;&lt;hr size=&quot;1&quot;&gt;&lt;p style=&quot;margin: 0px 0px 0px 8px&quot;&gt;registerObserver()&amp;nbsp;&lt;br&gt;&lt;/p&gt;&lt;p style=&quot;margin: 0px 0px 0px 4px&quot;&gt;&amp;nbsp;removeObserver()&amp;nbsp;&lt;/p&gt;&lt;p style=&quot;margin: 0px 0px 0px 4px&quot;&gt;&amp;nbsp;notifyObservers()&amp;nbsp;&lt;/p&gt;" style="verticalAlign=top;align=left;overflow=fill;fontSize=12;fontFamily=Helvetica;html=1;" parent="FsPIQTjs6mZfuHH-jwkU-1" vertex="1">
          <mxGeometry x="80" y="1280" width="200" height="120" as="geometry" />
        </mxCell>
        <mxCell id="FsPIQTjs6mZfuHH-jwkU-41" value="&lt;p style=&quot;margin: 0px ; margin-top: 4px ; text-align: center ; text-decoration: underline&quot;&gt;&lt;b&gt;NBAData&lt;/b&gt;&lt;/p&gt;&lt;hr&gt;&lt;p style=&quot;margin: 0px ; margin-left: 8px&quot;&gt;&lt;span&gt;registerObserver()&amp;nbsp;&lt;/span&gt;&lt;br&gt;&lt;/p&gt;&lt;p style=&quot;margin: 0px 0px 0px 4px&quot;&gt;&amp;nbsp;removeObserver()&amp;nbsp;&lt;/p&gt;&lt;p style=&quot;margin: 0px 0px 0px 4px&quot;&gt;&amp;nbsp;notifyObservers()&amp;nbsp;&lt;/p&gt;&lt;p style=&quot;margin: 0px 0px 0px 4px&quot;&gt;&lt;br&gt;&lt;/p&gt;&lt;p style=&quot;margin: 0px 0px 0px 4px&quot;&gt;getScore()&lt;/p&gt;&lt;p style=&quot;margin: 0px 0px 0px 4px&quot;&gt;getCurrentTime()&lt;/p&gt;&lt;p style=&quot;margin: 0px 0px 0px 4px&quot;&gt;getPlayerDatas()&lt;/p&gt;&lt;p style=&quot;margin: 0px 0px 0px 4px&quot;&gt;dataChanged()&lt;/p&gt;&lt;p style=&quot;margin: 0px ; margin-left: 8px&quot;&gt;&lt;br&gt;&lt;/p&gt;&lt;p style=&quot;margin: 0px ; margin-left: 8px&quot;&gt;&lt;br&gt;&lt;/p&gt;" style="verticalAlign=top;align=left;overflow=fill;fontSize=12;fontFamily=Helvetica;html=1;" parent="FsPIQTjs6mZfuHH-jwkU-1" vertex="1">
          <mxGeometry x="80" y="1490" width="200" height="160" as="geometry" />
        </mxCell>
        <mxCell id="FsPIQTjs6mZfuHH-jwkU-45" value="&lt;p style=&quot;margin: 0px ; margin-top: 4px ; text-align: center&quot;&gt;&lt;i&gt;&amp;lt;&amp;lt;Interface&amp;gt;&amp;gt;&lt;/i&gt;&lt;br&gt;&lt;b&gt;Observer&lt;/b&gt;&lt;/p&gt;&lt;hr size=&quot;1&quot;&gt;&lt;p style=&quot;margin: 0px 0px 0px 8px&quot;&gt;update()&lt;/p&gt;" style="verticalAlign=top;align=left;overflow=fill;fontSize=12;fontFamily=Helvetica;html=1;" parent="FsPIQTjs6mZfuHH-jwkU-1" vertex="1">
          <mxGeometry x="520" y="1280" width="160" height="80" as="geometry" />
        </mxCell>
        <mxCell id="FsPIQTjs6mZfuHH-jwkU-46" value="&lt;p style=&quot;margin: 0px ; margin-top: 4px ; text-align: center ; text-decoration: underline&quot;&gt;&lt;b&gt;TencentSportBoard&lt;/b&gt;&lt;/p&gt;&lt;hr&gt;&lt;p style=&quot;margin: 0px ; margin-left: 8px&quot;&gt;update()&lt;/p&gt;&lt;p style=&quot;margin: 0px ; margin-left: 8px&quot;&gt;display() {&lt;/p&gt;&lt;p style=&quot;margin: 0px ; margin-left: 8px&quot;&gt;&lt;span style=&quot;white-space: pre&quot;&gt;	&lt;/span&gt;// 显示全部数据&lt;br&gt;&lt;/p&gt;&lt;p style=&quot;margin: 0px ; margin-left: 8px&quot;&gt;}&lt;/p&gt;" style="verticalAlign=top;align=left;overflow=fill;fontSize=12;fontFamily=Helvetica;html=1;" parent="FsPIQTjs6mZfuHH-jwkU-1" vertex="1">
          <mxGeometry x="360" y="1560" width="160" height="90" as="geometry" />
        </mxCell>
        <mxCell id="FsPIQTjs6mZfuHH-jwkU-47" value="&lt;p style=&quot;margin: 0px ; margin-top: 4px ; text-align: center ; text-decoration: underline&quot;&gt;&lt;b&gt;CCTVSportBoard&lt;/b&gt;&lt;/p&gt;&lt;hr&gt;&lt;p style=&quot;margin: 0px ; margin-left: 8px&quot;&gt;update()&lt;/p&gt;&lt;p style=&quot;margin: 0px ; margin-left: 8px&quot;&gt;display() {&lt;/p&gt;&lt;p style=&quot;margin: 0px ; margin-left: 8px&quot;&gt;&lt;span style=&quot;white-space: pre&quot;&gt;	&lt;/span&gt;// 显示主客队总比分&lt;br&gt;&lt;/p&gt;&lt;p style=&quot;margin: 0px ; margin-left: 8px&quot;&gt;}&lt;/p&gt;" style="verticalAlign=top;align=left;overflow=fill;fontSize=12;fontFamily=Helvetica;html=1;" parent="FsPIQTjs6mZfuHH-jwkU-1" vertex="1">
          <mxGeometry x="560" y="1560" width="160" height="90" as="geometry" />
        </mxCell>
        <mxCell id="FsPIQTjs6mZfuHH-jwkU-48" value="&lt;p style=&quot;margin: 0px ; margin-top: 4px ; text-align: center ; text-decoration: underline&quot;&gt;&lt;b&gt;WeiboSportBoard&lt;/b&gt;&lt;/p&gt;&lt;hr&gt;&lt;p style=&quot;margin: 0px ; margin-left: 8px&quot;&gt;update()&lt;/p&gt;&lt;p style=&quot;margin: 0px ; margin-left: 8px&quot;&gt;display() {&lt;/p&gt;&lt;p style=&quot;margin: 0px ; margin-left: 8px&quot;&gt;// 显示得分最高的球员情况&lt;br&gt;&lt;/p&gt;&lt;p style=&quot;margin: 0px ; margin-left: 8px&quot;&gt;}&lt;/p&gt;" style="verticalAlign=top;align=left;overflow=fill;fontSize=12;fontFamily=Helvetica;html=1;" parent="FsPIQTjs6mZfuHH-jwkU-1" vertex="1">
          <mxGeometry x="760" y="1560" width="160" height="90" as="geometry" />
        </mxCell>
        <mxCell id="FsPIQTjs6mZfuHH-jwkU-49" value="&lt;p style=&quot;margin: 0px ; margin-top: 4px ; text-align: center ; text-decoration: underline&quot;&gt;&lt;b&gt;OtherSportBoard&lt;/b&gt;&lt;/p&gt;&lt;hr&gt;&lt;p style=&quot;margin: 0px ; margin-left: 8px&quot;&gt;update()&lt;/p&gt;&lt;p style=&quot;margin: 0px ; margin-left: 8px&quot;&gt;display() {&lt;/p&gt;&lt;p style=&quot;margin: 0px ; margin-left: 8px&quot;&gt;// 显示基于观测值进一步统计数据&lt;/p&gt;&lt;p style=&quot;margin: 0px ; margin-left: 8px&quot;&gt;&lt;span&gt;}&lt;/span&gt;&lt;/p&gt;" style="verticalAlign=top;align=left;overflow=fill;fontSize=12;fontFamily=Helvetica;html=1;" parent="FsPIQTjs6mZfuHH-jwkU-1" vertex="1">
          <mxGeometry x="960" y="1560" width="200" height="90" as="geometry" />
        </mxCell>
        <mxCell id="FsPIQTjs6mZfuHH-jwkU-50" value="&lt;p style=&quot;margin: 0px ; margin-top: 4px ; text-align: center&quot;&gt;&lt;i&gt;&amp;lt;&amp;lt;Interface&amp;gt;&amp;gt;&lt;/i&gt;&lt;br&gt;&lt;b&gt;DisplayElement&lt;/b&gt;&lt;/p&gt;&lt;hr size=&quot;1&quot;&gt;&lt;p style=&quot;margin: 0px 0px 0px 8px&quot;&gt;display()&lt;/p&gt;" style="verticalAlign=top;align=left;overflow=fill;fontSize=12;fontFamily=Helvetica;html=1;" parent="FsPIQTjs6mZfuHH-jwkU-1" vertex="1">
          <mxGeometry x="800" y="1280" width="140" height="80" as="geometry" />
        </mxCell>
        <mxCell id="FsPIQTjs6mZfuHH-jwkU-52" value="需要成为观察者则实现此观察者接口" style="text;html=1;align=center;verticalAlign=middle;resizable=0;points=[];autosize=1;strokeColor=none;fillColor=none;" parent="FsPIQTjs6mZfuHH-jwkU-1" vertex="1">
          <mxGeometry x="490" y="1250" width="210" height="20" as="geometry" />
        </mxCell>
        <mxCell id="FsPIQTjs6mZfuHH-jwkU-53" value="展示接口非观察者也可以实现此接口" style="text;html=1;align=center;verticalAlign=middle;resizable=0;points=[];autosize=1;strokeColor=none;fillColor=none;" parent="FsPIQTjs6mZfuHH-jwkU-1" vertex="1">
          <mxGeometry x="780" y="1250" width="210" height="20" as="geometry" />
        </mxCell>
        <mxCell id="FsPIQTjs6mZfuHH-jwkU-54" value="" style="endArrow=block;dashed=1;endFill=0;endSize=12;html=1;exitX=0.5;exitY=0;exitDx=0;exitDy=0;entryX=0.5;entryY=1;entryDx=0;entryDy=0;" parent="FsPIQTjs6mZfuHH-jwkU-1" source="FsPIQTjs6mZfuHH-jwkU-41" target="FsPIQTjs6mZfuHH-jwkU-40" edge="1">
          <mxGeometry width="160" relative="1" as="geometry">
            <mxPoint x="380" y="1480" as="sourcePoint" />
            <mxPoint x="540" y="1480" as="targetPoint" />
          </mxGeometry>
        </mxCell>
        <mxCell id="FsPIQTjs6mZfuHH-jwkU-56" value="" style="endArrow=block;dashed=1;endFill=0;endSize=12;html=1;exitX=0.5;exitY=0;exitDx=0;exitDy=0;entryX=0;entryY=1;entryDx=0;entryDy=0;" parent="FsPIQTjs6mZfuHH-jwkU-1" target="FsPIQTjs6mZfuHH-jwkU-45" edge="1">
          <mxGeometry width="160" relative="1" as="geometry">
            <mxPoint x="440" y="1560" as="sourcePoint" />
            <mxPoint x="440" y="1470" as="targetPoint" />
          </mxGeometry>
        </mxCell>
        <mxCell id="FsPIQTjs6mZfuHH-jwkU-57" value="" style="endArrow=block;dashed=1;endFill=0;endSize=12;html=1;exitX=0.5;exitY=0;exitDx=0;exitDy=0;" parent="FsPIQTjs6mZfuHH-jwkU-1" source="FsPIQTjs6mZfuHH-jwkU-46" edge="1">
          <mxGeometry width="160" relative="1" as="geometry">
            <mxPoint x="450" y="1570" as="sourcePoint" />
            <mxPoint x="800" y="1364" as="targetPoint" />
          </mxGeometry>
        </mxCell>
        <mxCell id="FsPIQTjs6mZfuHH-jwkU-58" value="" style="endArrow=block;dashed=1;endFill=0;endSize=12;html=1;exitX=0.5;exitY=0;exitDx=0;exitDy=0;entryX=0.25;entryY=1;entryDx=0;entryDy=0;" parent="FsPIQTjs6mZfuHH-jwkU-1" target="FsPIQTjs6mZfuHH-jwkU-45" edge="1">
          <mxGeometry width="160" relative="1" as="geometry">
            <mxPoint x="640" y="1560" as="sourcePoint" />
            <mxPoint x="720" y="1360" as="targetPoint" />
          </mxGeometry>
        </mxCell>
        <mxCell id="FsPIQTjs6mZfuHH-jwkU-59" value="" style="endArrow=block;dashed=1;endFill=0;endSize=12;html=1;exitX=0.5;exitY=0;exitDx=0;exitDy=0;entryX=0.386;entryY=1;entryDx=0;entryDy=0;entryPerimeter=0;" parent="FsPIQTjs6mZfuHH-jwkU-1" source="FsPIQTjs6mZfuHH-jwkU-47" target="FsPIQTjs6mZfuHH-jwkU-50" edge="1">
          <mxGeometry width="160" relative="1" as="geometry">
            <mxPoint x="650" y="1570" as="sourcePoint" />
            <mxPoint x="570" y="1370" as="targetPoint" />
          </mxGeometry>
        </mxCell>
        <mxCell id="FsPIQTjs6mZfuHH-jwkU-60" value="" style="endArrow=block;dashed=1;endFill=0;endSize=12;html=1;exitX=0.5;exitY=0;exitDx=0;exitDy=0;entryX=0.75;entryY=1;entryDx=0;entryDy=0;" parent="FsPIQTjs6mZfuHH-jwkU-1" source="FsPIQTjs6mZfuHH-jwkU-48" target="FsPIQTjs6mZfuHH-jwkU-45" edge="1">
          <mxGeometry width="160" relative="1" as="geometry">
            <mxPoint x="650" y="1570" as="sourcePoint" />
            <mxPoint x="845" y="1370" as="targetPoint" />
          </mxGeometry>
        </mxCell>
        <mxCell id="FsPIQTjs6mZfuHH-jwkU-61" value="" style="endArrow=block;dashed=1;endFill=0;endSize=12;html=1;entryX=0.75;entryY=1;entryDx=0;entryDy=0;" parent="FsPIQTjs6mZfuHH-jwkU-1" target="FsPIQTjs6mZfuHH-jwkU-50" edge="1">
          <mxGeometry width="160" relative="1" as="geometry">
            <mxPoint x="840" y="1560" as="sourcePoint" />
            <mxPoint x="610" y="1370" as="targetPoint" />
          </mxGeometry>
        </mxCell>
        <mxCell id="FsPIQTjs6mZfuHH-jwkU-62" value="" style="endArrow=block;dashed=1;endFill=0;endSize=12;html=1;entryX=1;entryY=1;entryDx=0;entryDy=0;exitX=0.5;exitY=0;exitDx=0;exitDy=0;" parent="FsPIQTjs6mZfuHH-jwkU-1" source="FsPIQTjs6mZfuHH-jwkU-49" target="FsPIQTjs6mZfuHH-jwkU-45" edge="1">
          <mxGeometry width="160" relative="1" as="geometry">
            <mxPoint x="850" y="1570" as="sourcePoint" />
            <mxPoint x="880" y="1370" as="targetPoint" />
          </mxGeometry>
        </mxCell>
        <mxCell id="FsPIQTjs6mZfuHH-jwkU-63" value="" style="endArrow=block;dashed=1;endFill=0;endSize=12;html=1;entryX=1;entryY=1;entryDx=0;entryDy=0;exitX=0.5;exitY=0;exitDx=0;exitDy=0;" parent="FsPIQTjs6mZfuHH-jwkU-1" source="FsPIQTjs6mZfuHH-jwkU-49" target="FsPIQTjs6mZfuHH-jwkU-50" edge="1">
          <mxGeometry width="160" relative="1" as="geometry">
            <mxPoint x="1070" y="1570" as="sourcePoint" />
            <mxPoint x="690" y="1370" as="targetPoint" />
          </mxGeometry>
        </mxCell>
        <mxCell id="FsPIQTjs6mZfuHH-jwkU-65" value="主题对象" style="text;html=1;align=center;verticalAlign=middle;resizable=0;points=[];autosize=1;strokeColor=none;fillColor=none;" parent="FsPIQTjs6mZfuHH-jwkU-1" vertex="1">
          <mxGeometry x="150" y="1250" width="60" height="20" as="geometry" />
        </mxCell>
        <mxCell id="FsPIQTjs6mZfuHH-jwkU-66" value="观察者" style="text;html=1;align=center;verticalAlign=middle;resizable=0;points=[];autosize=1;strokeColor=none;fillColor=none;" parent="FsPIQTjs6mZfuHH-jwkU-1" vertex="1">
          <mxGeometry x="720" y="1210" width="50" height="20" as="geometry" />
        </mxCell>
      </root>
    </mxGraphModel>
  </diagram>
  <diagram id="Gi_AT1zAxmgVqVtudaxe" name="装饰器模式">
    <mxGraphModel dx="700" dy="752" grid="1" gridSize="10" guides="1" tooltips="1" connect="1" arrows="1" fold="1" page="1" pageScale="1" pageWidth="827" pageHeight="1169" math="0" shadow="0">
      <root>
        <mxCell id="oOpWb501PFXFz8006HvH-0" />
        <mxCell id="oOpWb501PFXFz8006HvH-1" parent="oOpWb501PFXFz8006HvH-0" />
        <mxCell id="xWImn3TrqVZ1JQtZ4iAm-13" value="" style="ellipse;whiteSpace=wrap;html=1;hachureGap=4;pointerEvents=0;align=left;" vertex="1" parent="oOpWb501PFXFz8006HvH-1">
          <mxGeometry x="140" y="1754" width="410" height="170" as="geometry" />
        </mxCell>
        <mxCell id="xWImn3TrqVZ1JQtZ4iAm-3" value="" style="ellipse;whiteSpace=wrap;html=1;hachureGap=4;pointerEvents=0;align=left;" vertex="1" parent="oOpWb501PFXFz8006HvH-1">
          <mxGeometry x="150" y="1575" width="270" height="135" as="geometry" />
        </mxCell>
        <mxCell id="Mwr4hlmYIwkJtcKE7npp-4" value="abstract class Beverage" style="swimlane;fontStyle=1;align=center;verticalAlign=top;childLayout=stackLayout;horizontal=1;startSize=26;horizontalStack=0;resizeParent=1;resizeParentMax=0;resizeLast=0;collapsible=1;marginBottom=0;" parent="oOpWb501PFXFz8006HvH-1" vertex="1">
          <mxGeometry x="400" y="90" width="160" height="140" as="geometry" />
        </mxCell>
        <mxCell id="Mwr4hlmYIwkJtcKE7npp-5" value="+String desciption " style="text;strokeColor=none;fillColor=none;align=left;verticalAlign=top;spacingLeft=4;spacingRight=4;overflow=hidden;rotatable=0;points=[[0,0.5],[1,0.5]];portConstraint=eastwest;" parent="Mwr4hlmYIwkJtcKE7npp-4" vertex="1">
          <mxGeometry y="26" width="160" height="24" as="geometry" />
        </mxCell>
        <mxCell id="Mwr4hlmYIwkJtcKE7npp-6" value="" style="line;strokeWidth=1;fillColor=none;align=left;verticalAlign=middle;spacingTop=-1;spacingLeft=3;spacingRight=3;rotatable=0;labelPosition=right;points=[];portConstraint=eastwest;" parent="Mwr4hlmYIwkJtcKE7npp-4" vertex="1">
          <mxGeometry y="50" width="160" height="8" as="geometry" />
        </mxCell>
        <mxCell id="Mwr4hlmYIwkJtcKE7npp-9" value="+String getDescription() " style="text;strokeColor=none;fillColor=none;align=left;verticalAlign=top;spacingLeft=4;spacingRight=4;overflow=hidden;rotatable=0;points=[[0,0.5],[1,0.5]];portConstraint=eastwest;" parent="Mwr4hlmYIwkJtcKE7npp-4" vertex="1">
          <mxGeometry y="58" width="160" height="22" as="geometry" />
        </mxCell>
        <mxCell id="Mwr4hlmYIwkJtcKE7npp-7" value="+abstract double cost()&#xa;&#xa;// 其他方法 " style="text;strokeColor=none;fillColor=none;align=left;verticalAlign=top;spacingLeft=4;spacingRight=4;overflow=hidden;rotatable=0;points=[[0,0.5],[1,0.5]];portConstraint=eastwest;" parent="Mwr4hlmYIwkJtcKE7npp-4" vertex="1">
          <mxGeometry y="80" width="160" height="60" as="geometry" />
        </mxCell>
        <mxCell id="Mwr4hlmYIwkJtcKE7npp-10" value="Wulong" style="swimlane;fontStyle=1;align=center;verticalAlign=top;childLayout=stackLayout;horizontal=1;startSize=26;horizontalStack=0;resizeParent=1;resizeParentMax=0;resizeLast=0;collapsible=1;marginBottom=0;" parent="oOpWb501PFXFz8006HvH-1" vertex="1">
          <mxGeometry x="70" y="350" width="160" height="52" as="geometry" />
        </mxCell>
        <mxCell id="Mwr4hlmYIwkJtcKE7npp-13" value="cost()" style="text;strokeColor=none;fillColor=none;align=left;verticalAlign=top;spacingLeft=4;spacingRight=4;overflow=hidden;rotatable=0;points=[[0,0.5],[1,0.5]];portConstraint=eastwest;" parent="Mwr4hlmYIwkJtcKE7npp-10" vertex="1">
          <mxGeometry y="26" width="160" height="26" as="geometry" />
        </mxCell>
        <mxCell id="Mwr4hlmYIwkJtcKE7npp-14" value="Mocha" style="swimlane;fontStyle=1;align=center;verticalAlign=top;childLayout=stackLayout;horizontal=1;startSize=26;horizontalStack=0;resizeParent=1;resizeParentMax=0;resizeLast=0;collapsible=1;marginBottom=0;" parent="oOpWb501PFXFz8006HvH-1" vertex="1">
          <mxGeometry x="300" y="348" width="160" height="52" as="geometry" />
        </mxCell>
        <mxCell id="Mwr4hlmYIwkJtcKE7npp-15" value="cost()" style="text;strokeColor=none;fillColor=none;align=left;verticalAlign=top;spacingLeft=4;spacingRight=4;overflow=hidden;rotatable=0;points=[[0,0.5],[1,0.5]];portConstraint=eastwest;" parent="Mwr4hlmYIwkJtcKE7npp-14" vertex="1">
          <mxGeometry y="26" width="160" height="26" as="geometry" />
        </mxCell>
        <mxCell id="Mwr4hlmYIwkJtcKE7npp-16" value="Yuyuan" style="swimlane;fontStyle=1;align=center;verticalAlign=top;childLayout=stackLayout;horizontal=1;startSize=26;horizontalStack=0;resizeParent=1;resizeParentMax=0;resizeLast=0;collapsible=1;marginBottom=0;" parent="oOpWb501PFXFz8006HvH-1" vertex="1">
          <mxGeometry x="710" y="348" width="160" height="48" as="geometry" />
        </mxCell>
        <mxCell id="Mwr4hlmYIwkJtcKE7npp-17" value="cost()" style="text;strokeColor=none;fillColor=none;align=left;verticalAlign=top;spacingLeft=4;spacingRight=4;overflow=hidden;rotatable=0;points=[[0,0.5],[1,0.5]];portConstraint=eastwest;" parent="Mwr4hlmYIwkJtcKE7npp-16" vertex="1">
          <mxGeometry y="26" width="160" height="22" as="geometry" />
        </mxCell>
        <mxCell id="Mwr4hlmYIwkJtcKE7npp-19" value="Keke" style="swimlane;fontStyle=1;align=center;verticalAlign=top;childLayout=stackLayout;horizontal=1;startSize=26;horizontalStack=0;resizeParent=1;resizeParentMax=0;resizeLast=0;collapsible=1;marginBottom=0;" parent="oOpWb501PFXFz8006HvH-1" vertex="1">
          <mxGeometry x="500" y="348" width="160" height="48" as="geometry" />
        </mxCell>
        <mxCell id="Mwr4hlmYIwkJtcKE7npp-20" value="cost()" style="text;strokeColor=none;fillColor=none;align=left;verticalAlign=top;spacingLeft=4;spacingRight=4;overflow=hidden;rotatable=0;points=[[0,0.5],[1,0.5]];portConstraint=eastwest;" parent="Mwr4hlmYIwkJtcKE7npp-19" vertex="1">
          <mxGeometry y="26" width="160" height="22" as="geometry" />
        </mxCell>
        <mxCell id="Mwr4hlmYIwkJtcKE7npp-22" value="Extends" style="endArrow=block;endSize=16;endFill=0;html=1;exitX=0.5;exitY=0;exitDx=0;exitDy=0;entryX=0.006;entryY=0.967;entryDx=0;entryDy=0;entryPerimeter=0;" parent="oOpWb501PFXFz8006HvH-1" source="Mwr4hlmYIwkJtcKE7npp-10" target="Mwr4hlmYIwkJtcKE7npp-7" edge="1">
          <mxGeometry width="160" relative="1" as="geometry">
            <mxPoint x="150" y="280" as="sourcePoint" />
            <mxPoint x="310" y="280" as="targetPoint" />
          </mxGeometry>
        </mxCell>
        <mxCell id="Mwr4hlmYIwkJtcKE7npp-24" value="Extends" style="endArrow=block;endSize=16;endFill=0;html=1;exitX=0.5;exitY=0;exitDx=0;exitDy=0;entryX=0.006;entryY=0.967;entryDx=0;entryDy=0;entryPerimeter=0;" parent="oOpWb501PFXFz8006HvH-1" source="Mwr4hlmYIwkJtcKE7npp-14" edge="1">
          <mxGeometry width="160" relative="1" as="geometry">
            <mxPoint x="200" y="351.98" as="sourcePoint" />
            <mxPoint x="450.96000000000004" y="229.99999999999997" as="targetPoint" />
          </mxGeometry>
        </mxCell>
        <mxCell id="Mwr4hlmYIwkJtcKE7npp-25" value="Extends" style="endArrow=block;endSize=16;endFill=0;html=1;exitX=0.5;exitY=0;exitDx=0;exitDy=0;" parent="oOpWb501PFXFz8006HvH-1" source="Mwr4hlmYIwkJtcKE7npp-19" target="Mwr4hlmYIwkJtcKE7npp-7" edge="1">
          <mxGeometry width="160" relative="1" as="geometry">
            <mxPoint x="460" y="358" as="sourcePoint" />
            <mxPoint x="530.96" y="240" as="targetPoint" />
          </mxGeometry>
        </mxCell>
        <mxCell id="Mwr4hlmYIwkJtcKE7npp-26" value="Extends" style="endArrow=block;endSize=16;endFill=0;html=1;entryX=0.006;entryY=0.967;entryDx=0;entryDy=0;entryPerimeter=0;" parent="oOpWb501PFXFz8006HvH-1" edge="1">
          <mxGeometry width="160" relative="1" as="geometry">
            <mxPoint x="790" y="348" as="sourcePoint" />
            <mxPoint x="560" y="230" as="targetPoint" />
          </mxGeometry>
        </mxCell>
        <mxCell id="Mwr4hlmYIwkJtcKE7npp-27" value="abstract class Beverage" style="swimlane;fontStyle=1;align=center;verticalAlign=top;childLayout=stackLayout;horizontal=1;startSize=26;horizontalStack=0;resizeParent=1;resizeParentMax=0;resizeLast=0;collapsible=1;marginBottom=0;" parent="oOpWb501PFXFz8006HvH-1" vertex="1">
          <mxGeometry x="400" y="610" width="160" height="140" as="geometry" />
        </mxCell>
        <mxCell id="Mwr4hlmYIwkJtcKE7npp-28" value="+String desciption " style="text;strokeColor=none;fillColor=none;align=left;verticalAlign=top;spacingLeft=4;spacingRight=4;overflow=hidden;rotatable=0;points=[[0,0.5],[1,0.5]];portConstraint=eastwest;" parent="Mwr4hlmYIwkJtcKE7npp-27" vertex="1">
          <mxGeometry y="26" width="160" height="24" as="geometry" />
        </mxCell>
        <mxCell id="Mwr4hlmYIwkJtcKE7npp-29" value="" style="line;strokeWidth=1;fillColor=none;align=left;verticalAlign=middle;spacingTop=-1;spacingLeft=3;spacingRight=3;rotatable=0;labelPosition=right;points=[];portConstraint=eastwest;" parent="Mwr4hlmYIwkJtcKE7npp-27" vertex="1">
          <mxGeometry y="50" width="160" height="8" as="geometry" />
        </mxCell>
        <mxCell id="Mwr4hlmYIwkJtcKE7npp-30" value="+String getDescription() " style="text;strokeColor=none;fillColor=none;align=left;verticalAlign=top;spacingLeft=4;spacingRight=4;overflow=hidden;rotatable=0;points=[[0,0.5],[1,0.5]];portConstraint=eastwest;" parent="Mwr4hlmYIwkJtcKE7npp-27" vertex="1">
          <mxGeometry y="58" width="160" height="22" as="geometry" />
        </mxCell>
        <mxCell id="Mwr4hlmYIwkJtcKE7npp-31" value="+abstract double cost()&#xa;&#xa;// 其他方法 " style="text;strokeColor=none;fillColor=none;align=left;verticalAlign=top;spacingLeft=4;spacingRight=4;overflow=hidden;rotatable=0;points=[[0,0.5],[1,0.5]];portConstraint=eastwest;" parent="Mwr4hlmYIwkJtcKE7npp-27" vertex="1">
          <mxGeometry y="80" width="160" height="60" as="geometry" />
        </mxCell>
        <mxCell id="Mwr4hlmYIwkJtcKE7npp-32" value="WulongWithYanmai" style="swimlane;fontStyle=1;align=center;verticalAlign=top;childLayout=stackLayout;horizontal=1;startSize=26;horizontalStack=0;resizeParent=1;resizeParentMax=0;resizeLast=0;collapsible=1;marginBottom=0;" parent="oOpWb501PFXFz8006HvH-1" vertex="1">
          <mxGeometry x="70" y="870" width="160" height="52" as="geometry" />
        </mxCell>
        <mxCell id="Mwr4hlmYIwkJtcKE7npp-33" value="cost()" style="text;strokeColor=none;fillColor=none;align=left;verticalAlign=top;spacingLeft=4;spacingRight=4;overflow=hidden;rotatable=0;points=[[0,0.5],[1,0.5]];portConstraint=eastwest;" parent="Mwr4hlmYIwkJtcKE7npp-32" vertex="1">
          <mxGeometry y="26" width="160" height="26" as="geometry" />
        </mxCell>
        <mxCell id="Mwr4hlmYIwkJtcKE7npp-34" value="MochaWithZhenzhu" style="swimlane;fontStyle=1;align=center;verticalAlign=top;childLayout=stackLayout;horizontal=1;startSize=26;horizontalStack=0;resizeParent=1;resizeParentMax=0;resizeLast=0;collapsible=1;marginBottom=0;" parent="oOpWb501PFXFz8006HvH-1" vertex="1">
          <mxGeometry x="300" y="868" width="160" height="52" as="geometry" />
        </mxCell>
        <mxCell id="Mwr4hlmYIwkJtcKE7npp-35" value="cost()" style="text;strokeColor=none;fillColor=none;align=left;verticalAlign=top;spacingLeft=4;spacingRight=4;overflow=hidden;rotatable=0;points=[[0,0.5],[1,0.5]];portConstraint=eastwest;" parent="Mwr4hlmYIwkJtcKE7npp-34" vertex="1">
          <mxGeometry y="26" width="160" height="26" as="geometry" />
        </mxCell>
        <mxCell id="Mwr4hlmYIwkJtcKE7npp-36" value="YuyuanWithYanmai" style="swimlane;fontStyle=1;align=center;verticalAlign=top;childLayout=stackLayout;horizontal=1;startSize=26;horizontalStack=0;resizeParent=1;resizeParentMax=0;resizeLast=0;collapsible=1;marginBottom=0;" parent="oOpWb501PFXFz8006HvH-1" vertex="1">
          <mxGeometry x="710" y="868" width="160" height="48" as="geometry" />
        </mxCell>
        <mxCell id="Mwr4hlmYIwkJtcKE7npp-37" value="cost()" style="text;strokeColor=none;fillColor=none;align=left;verticalAlign=top;spacingLeft=4;spacingRight=4;overflow=hidden;rotatable=0;points=[[0,0.5],[1,0.5]];portConstraint=eastwest;" parent="Mwr4hlmYIwkJtcKE7npp-36" vertex="1">
          <mxGeometry y="26" width="160" height="22" as="geometry" />
        </mxCell>
        <mxCell id="Mwr4hlmYIwkJtcKE7npp-38" value="KekeWithHongdou" style="swimlane;fontStyle=1;align=center;verticalAlign=top;childLayout=stackLayout;horizontal=1;startSize=26;horizontalStack=0;resizeParent=1;resizeParentMax=0;resizeLast=0;collapsible=1;marginBottom=0;" parent="oOpWb501PFXFz8006HvH-1" vertex="1">
          <mxGeometry x="500" y="868" width="160" height="48" as="geometry" />
        </mxCell>
        <mxCell id="Mwr4hlmYIwkJtcKE7npp-39" value="cost()" style="text;strokeColor=none;fillColor=none;align=left;verticalAlign=top;spacingLeft=4;spacingRight=4;overflow=hidden;rotatable=0;points=[[0,0.5],[1,0.5]];portConstraint=eastwest;" parent="Mwr4hlmYIwkJtcKE7npp-38" vertex="1">
          <mxGeometry y="26" width="160" height="22" as="geometry" />
        </mxCell>
        <mxCell id="Mwr4hlmYIwkJtcKE7npp-40" value="Extends" style="endArrow=block;endSize=16;endFill=0;html=1;exitX=0.5;exitY=0;exitDx=0;exitDy=0;entryX=0.006;entryY=0.967;entryDx=0;entryDy=0;entryPerimeter=0;" parent="oOpWb501PFXFz8006HvH-1" source="Mwr4hlmYIwkJtcKE7npp-32" target="Mwr4hlmYIwkJtcKE7npp-31" edge="1">
          <mxGeometry width="160" relative="1" as="geometry">
            <mxPoint x="150" y="800" as="sourcePoint" />
            <mxPoint x="310" y="800" as="targetPoint" />
          </mxGeometry>
        </mxCell>
        <mxCell id="Mwr4hlmYIwkJtcKE7npp-41" value="Extends" style="endArrow=block;endSize=16;endFill=0;html=1;exitX=0.5;exitY=0;exitDx=0;exitDy=0;entryX=0.006;entryY=0.967;entryDx=0;entryDy=0;entryPerimeter=0;" parent="oOpWb501PFXFz8006HvH-1" source="Mwr4hlmYIwkJtcKE7npp-34" edge="1">
          <mxGeometry width="160" relative="1" as="geometry">
            <mxPoint x="200" y="871.98" as="sourcePoint" />
            <mxPoint x="450.96000000000004" y="750" as="targetPoint" />
          </mxGeometry>
        </mxCell>
        <mxCell id="Mwr4hlmYIwkJtcKE7npp-42" value="Extends" style="endArrow=block;endSize=16;endFill=0;html=1;exitX=0.5;exitY=0;exitDx=0;exitDy=0;" parent="oOpWb501PFXFz8006HvH-1" source="Mwr4hlmYIwkJtcKE7npp-38" edge="1">
          <mxGeometry width="160" relative="1" as="geometry">
            <mxPoint x="460" y="878" as="sourcePoint" />
            <mxPoint x="510" y="750" as="targetPoint" />
          </mxGeometry>
        </mxCell>
        <mxCell id="Mwr4hlmYIwkJtcKE7npp-43" value="Extends" style="endArrow=block;endSize=16;endFill=0;html=1;entryX=0.006;entryY=0.967;entryDx=0;entryDy=0;entryPerimeter=0;" parent="oOpWb501PFXFz8006HvH-1" edge="1">
          <mxGeometry width="160" relative="1" as="geometry">
            <mxPoint x="790" y="868" as="sourcePoint" />
            <mxPoint x="560" y="750" as="targetPoint" />
          </mxGeometry>
        </mxCell>
        <mxCell id="Mwr4hlmYIwkJtcKE7npp-44" value="WulongWithYanmaiAndYeguo" style="swimlane;fontStyle=1;align=center;verticalAlign=top;childLayout=stackLayout;horizontal=1;startSize=26;horizontalStack=0;resizeParent=1;resizeParentMax=0;resizeLast=0;collapsible=1;marginBottom=0;" parent="oOpWb501PFXFz8006HvH-1" vertex="1">
          <mxGeometry x="55" y="970" width="190" height="52" as="geometry" />
        </mxCell>
        <mxCell id="Mwr4hlmYIwkJtcKE7npp-45" value="cost()" style="text;strokeColor=none;fillColor=none;align=left;verticalAlign=top;spacingLeft=4;spacingRight=4;overflow=hidden;rotatable=0;points=[[0,0.5],[1,0.5]];portConstraint=eastwest;" parent="Mwr4hlmYIwkJtcKE7npp-44" vertex="1">
          <mxGeometry y="26" width="190" height="26" as="geometry" />
        </mxCell>
        <mxCell id="Mwr4hlmYIwkJtcKE7npp-47" value="WulongWithYeguo" style="swimlane;fontStyle=1;align=center;verticalAlign=top;childLayout=stackLayout;horizontal=1;startSize=26;horizontalStack=0;resizeParent=1;resizeParentMax=0;resizeLast=0;collapsible=1;marginBottom=0;" parent="oOpWb501PFXFz8006HvH-1" vertex="1">
          <mxGeometry x="55" y="1060" width="190" height="52" as="geometry" />
        </mxCell>
        <mxCell id="Mwr4hlmYIwkJtcKE7npp-48" value="cost()" style="text;strokeColor=none;fillColor=none;align=left;verticalAlign=top;spacingLeft=4;spacingRight=4;overflow=hidden;rotatable=0;points=[[0,0.5],[1,0.5]];portConstraint=eastwest;" parent="Mwr4hlmYIwkJtcKE7npp-47" vertex="1">
          <mxGeometry y="26" width="190" height="26" as="geometry" />
        </mxCell>
        <mxCell id="Mwr4hlmYIwkJtcKE7npp-49" value="MochaWithZhenzhuAndXiancao" style="swimlane;fontStyle=1;align=center;verticalAlign=top;childLayout=stackLayout;horizontal=1;startSize=26;horizontalStack=0;resizeParent=1;resizeParentMax=0;resizeLast=0;collapsible=1;marginBottom=0;" parent="oOpWb501PFXFz8006HvH-1" vertex="1">
          <mxGeometry x="300" y="1060" width="200" height="52" as="geometry" />
        </mxCell>
        <mxCell id="Mwr4hlmYIwkJtcKE7npp-50" value="cost()" style="text;strokeColor=none;fillColor=none;align=left;verticalAlign=top;spacingLeft=4;spacingRight=4;overflow=hidden;rotatable=0;points=[[0,0.5],[1,0.5]];portConstraint=eastwest;" parent="Mwr4hlmYIwkJtcKE7npp-49" vertex="1">
          <mxGeometry y="26" width="200" height="26" as="geometry" />
        </mxCell>
        <mxCell id="Mwr4hlmYIwkJtcKE7npp-51" value="MochaWithXiancao" style="swimlane;fontStyle=1;align=center;verticalAlign=top;childLayout=stackLayout;horizontal=1;startSize=26;horizontalStack=0;resizeParent=1;resizeParentMax=0;resizeLast=0;collapsible=1;marginBottom=0;" parent="oOpWb501PFXFz8006HvH-1" vertex="1">
          <mxGeometry x="300" y="970" width="160" height="52" as="geometry" />
        </mxCell>
        <mxCell id="Mwr4hlmYIwkJtcKE7npp-52" value="cost()" style="text;strokeColor=none;fillColor=none;align=left;verticalAlign=top;spacingLeft=4;spacingRight=4;overflow=hidden;rotatable=0;points=[[0,0.5],[1,0.5]];portConstraint=eastwest;" parent="Mwr4hlmYIwkJtcKE7npp-51" vertex="1">
          <mxGeometry y="26" width="160" height="26" as="geometry" />
        </mxCell>
        <mxCell id="Mwr4hlmYIwkJtcKE7npp-54" value="KekeWithYanmai" style="swimlane;fontStyle=1;align=center;verticalAlign=top;childLayout=stackLayout;horizontal=1;startSize=26;horizontalStack=0;resizeParent=1;resizeParentMax=0;resizeLast=0;collapsible=1;marginBottom=0;" parent="oOpWb501PFXFz8006HvH-1" vertex="1">
          <mxGeometry x="500" y="970" width="160" height="48" as="geometry" />
        </mxCell>
        <mxCell id="Mwr4hlmYIwkJtcKE7npp-55" value="cost()" style="text;strokeColor=none;fillColor=none;align=left;verticalAlign=top;spacingLeft=4;spacingRight=4;overflow=hidden;rotatable=0;points=[[0,0.5],[1,0.5]];portConstraint=eastwest;" parent="Mwr4hlmYIwkJtcKE7npp-54" vertex="1">
          <mxGeometry y="26" width="160" height="22" as="geometry" />
        </mxCell>
        <mxCell id="Mwr4hlmYIwkJtcKE7npp-56" value="KekeWithYeguo" style="swimlane;fontStyle=1;align=center;verticalAlign=top;childLayout=stackLayout;horizontal=1;startSize=26;horizontalStack=0;resizeParent=1;resizeParentMax=0;resizeLast=0;collapsible=1;marginBottom=0;" parent="oOpWb501PFXFz8006HvH-1" vertex="1">
          <mxGeometry x="520" y="1064" width="160" height="48" as="geometry" />
        </mxCell>
        <mxCell id="Mwr4hlmYIwkJtcKE7npp-57" value="cost()" style="text;strokeColor=none;fillColor=none;align=left;verticalAlign=top;spacingLeft=4;spacingRight=4;overflow=hidden;rotatable=0;points=[[0,0.5],[1,0.5]];portConstraint=eastwest;" parent="Mwr4hlmYIwkJtcKE7npp-56" vertex="1">
          <mxGeometry y="26" width="160" height="22" as="geometry" />
        </mxCell>
        <mxCell id="Mwr4hlmYIwkJtcKE7npp-58" value="YuyuanWithYeguo" style="swimlane;fontStyle=1;align=center;verticalAlign=top;childLayout=stackLayout;horizontal=1;startSize=26;horizontalStack=0;resizeParent=1;resizeParentMax=0;resizeLast=0;collapsible=1;marginBottom=0;" parent="oOpWb501PFXFz8006HvH-1" vertex="1">
          <mxGeometry x="710" y="972" width="160" height="48" as="geometry" />
        </mxCell>
        <mxCell id="Mwr4hlmYIwkJtcKE7npp-59" value="cost()" style="text;strokeColor=none;fillColor=none;align=left;verticalAlign=top;spacingLeft=4;spacingRight=4;overflow=hidden;rotatable=0;points=[[0,0.5],[1,0.5]];portConstraint=eastwest;" parent="Mwr4hlmYIwkJtcKE7npp-58" vertex="1">
          <mxGeometry y="26" width="160" height="22" as="geometry" />
        </mxCell>
        <mxCell id="Mwr4hlmYIwkJtcKE7npp-60" value="YuyuanWirhXiancaoAndYeguo" style="swimlane;fontStyle=1;align=center;verticalAlign=top;childLayout=stackLayout;horizontal=1;startSize=26;horizontalStack=0;resizeParent=1;resizeParentMax=0;resizeLast=0;collapsible=1;marginBottom=0;" parent="oOpWb501PFXFz8006HvH-1" vertex="1">
          <mxGeometry x="730" y="1060" width="180" height="48" as="geometry" />
        </mxCell>
        <mxCell id="Mwr4hlmYIwkJtcKE7npp-61" value="cost()" style="text;strokeColor=none;fillColor=none;align=left;verticalAlign=top;spacingLeft=4;spacingRight=4;overflow=hidden;rotatable=0;points=[[0,0.5],[1,0.5]];portConstraint=eastwest;" parent="Mwr4hlmYIwkJtcKE7npp-60" vertex="1">
          <mxGeometry y="26" width="180" height="22" as="geometry" />
        </mxCell>
        <mxCell id="Mwr4hlmYIwkJtcKE7npp-62" value="Extends" style="endArrow=block;endSize=16;endFill=0;html=1;exitX=0.5;exitY=0;exitDx=0;exitDy=0;entryX=0.11;entryY=0.998;entryDx=0;entryDy=0;entryPerimeter=0;" parent="oOpWb501PFXFz8006HvH-1" source="Mwr4hlmYIwkJtcKE7npp-44" target="Mwr4hlmYIwkJtcKE7npp-31" edge="1">
          <mxGeometry width="160" relative="1" as="geometry">
            <mxPoint x="160" y="880" as="sourcePoint" />
            <mxPoint x="410.96000000000004" y="758.02" as="targetPoint" />
          </mxGeometry>
        </mxCell>
        <mxCell id="Mwr4hlmYIwkJtcKE7npp-63" value="Extends" style="endArrow=block;endSize=16;endFill=0;html=1;exitX=0.5;exitY=0;exitDx=0;exitDy=0;entryX=0.191;entryY=0.998;entryDx=0;entryDy=0;entryPerimeter=0;" parent="oOpWb501PFXFz8006HvH-1" source="Mwr4hlmYIwkJtcKE7npp-47" target="Mwr4hlmYIwkJtcKE7npp-31" edge="1">
          <mxGeometry width="160" relative="1" as="geometry">
            <mxPoint x="170" y="890" as="sourcePoint" />
            <mxPoint x="420.96000000000004" y="768.02" as="targetPoint" />
          </mxGeometry>
        </mxCell>
        <mxCell id="Mwr4hlmYIwkJtcKE7npp-64" value="Extends" style="endArrow=block;endSize=16;endFill=0;html=1;exitX=0.5;exitY=0;exitDx=0;exitDy=0;" parent="oOpWb501PFXFz8006HvH-1" source="Mwr4hlmYIwkJtcKE7npp-51" edge="1">
          <mxGeometry width="160" relative="1" as="geometry">
            <mxPoint x="180" y="900" as="sourcePoint" />
            <mxPoint x="464" y="750" as="targetPoint" />
          </mxGeometry>
        </mxCell>
        <mxCell id="Mwr4hlmYIwkJtcKE7npp-65" value="Extends" style="endArrow=block;endSize=16;endFill=0;html=1;exitX=0.5;exitY=0;exitDx=0;exitDy=0;" parent="oOpWb501PFXFz8006HvH-1" source="Mwr4hlmYIwkJtcKE7npp-49" edge="1">
          <mxGeometry width="160" relative="1" as="geometry">
            <mxPoint x="190" y="910" as="sourcePoint" />
            <mxPoint x="472" y="750" as="targetPoint" />
          </mxGeometry>
        </mxCell>
        <mxCell id="Mwr4hlmYIwkJtcKE7npp-66" value="Extends" style="endArrow=block;endSize=16;endFill=0;html=1;exitX=0.5;exitY=0;exitDx=0;exitDy=0;entryX=0.536;entryY=1.037;entryDx=0;entryDy=0;entryPerimeter=0;" parent="oOpWb501PFXFz8006HvH-1" source="Mwr4hlmYIwkJtcKE7npp-54" target="Mwr4hlmYIwkJtcKE7npp-31" edge="1">
          <mxGeometry width="160" relative="1" as="geometry">
            <mxPoint x="590" y="877.9999999999998" as="sourcePoint" />
            <mxPoint x="485" y="760" as="targetPoint" />
          </mxGeometry>
        </mxCell>
        <mxCell id="Mwr4hlmYIwkJtcKE7npp-67" value="Extends" style="endArrow=block;endSize=16;endFill=0;html=1;exitX=0.5;exitY=0;exitDx=0;exitDy=0;entryX=0.47;entryY=1.037;entryDx=0;entryDy=0;entryPerimeter=0;" parent="oOpWb501PFXFz8006HvH-1" source="Mwr4hlmYIwkJtcKE7npp-56" target="Mwr4hlmYIwkJtcKE7npp-31" edge="1">
          <mxGeometry width="160" relative="1" as="geometry">
            <mxPoint x="600" y="887.9999999999998" as="sourcePoint" />
            <mxPoint x="498.72000000000025" y="769.8799999999999" as="targetPoint" />
          </mxGeometry>
        </mxCell>
        <mxCell id="Mwr4hlmYIwkJtcKE7npp-68" value="Extends" style="endArrow=block;endSize=16;endFill=0;html=1;exitX=0.5;exitY=0;exitDx=0;exitDy=0;entryX=0.911;entryY=1.018;entryDx=0;entryDy=0;entryPerimeter=0;" parent="oOpWb501PFXFz8006HvH-1" source="Mwr4hlmYIwkJtcKE7npp-58" target="Mwr4hlmYIwkJtcKE7npp-31" edge="1">
          <mxGeometry width="160" relative="1" as="geometry">
            <mxPoint x="610" y="897.9999999999998" as="sourcePoint" />
            <mxPoint x="508.72000000000025" y="779.8799999999999" as="targetPoint" />
          </mxGeometry>
        </mxCell>
        <mxCell id="Mwr4hlmYIwkJtcKE7npp-69" value="Extends" style="endArrow=block;endSize=16;endFill=0;html=1;exitX=0.5;exitY=0;exitDx=0;exitDy=0;entryX=0.823;entryY=0.998;entryDx=0;entryDy=0;entryPerimeter=0;" parent="oOpWb501PFXFz8006HvH-1" source="Mwr4hlmYIwkJtcKE7npp-60" target="Mwr4hlmYIwkJtcKE7npp-31" edge="1">
          <mxGeometry width="160" relative="1" as="geometry">
            <mxPoint x="620" y="907.9999999999998" as="sourcePoint" />
            <mxPoint x="518.7200000000003" y="789.8799999999999" as="targetPoint" />
          </mxGeometry>
        </mxCell>
        <mxCell id="Mwr4hlmYIwkJtcKE7npp-70" value="还有很多组合方式此处省略。。。。。。。。。。。。。这样写不好。。。。。。。。。。。。。。。。。。。。。。。" style="text;html=1;align=center;verticalAlign=middle;resizable=0;points=[];autosize=1;strokeColor=none;fillColor=none;" parent="oOpWb501PFXFz8006HvH-1" vertex="1">
          <mxGeometry x="90" y="1130" width="650" height="20" as="geometry" />
        </mxCell>
        <mxCell id="Mwr4hlmYIwkJtcKE7npp-75" value="Beverage" style="swimlane;fontStyle=1;align=center;verticalAlign=top;childLayout=stackLayout;horizontal=1;startSize=26;horizontalStack=0;resizeParent=1;resizeParentMax=0;resizeLast=0;collapsible=1;marginBottom=0;" parent="oOpWb501PFXFz8006HvH-1" vertex="1">
          <mxGeometry x="1190" y="90" width="160" height="290" as="geometry">
            <mxRectangle x="1190" y="90" width="90" height="26" as="alternateBounds" />
          </mxGeometry>
        </mxCell>
        <mxCell id="Mwr4hlmYIwkJtcKE7npp-76" value="+String desciption &#xa;+Boolean Yanmai&#xa;+Boolean Mocha&#xa;+Boolean Keke&#xa;+Boolean Yuyuan" style="text;strokeColor=none;fillColor=none;align=left;verticalAlign=top;spacingLeft=4;spacingRight=4;overflow=hidden;rotatable=0;points=[[0,0.5],[1,0.5]];portConstraint=eastwest;" parent="Mwr4hlmYIwkJtcKE7npp-75" vertex="1">
          <mxGeometry y="26" width="160" height="84" as="geometry" />
        </mxCell>
        <mxCell id="Mwr4hlmYIwkJtcKE7npp-77" value="" style="line;strokeWidth=1;fillColor=none;align=left;verticalAlign=middle;spacingTop=-1;spacingLeft=3;spacingRight=3;rotatable=0;labelPosition=right;points=[];portConstraint=eastwest;" parent="Mwr4hlmYIwkJtcKE7npp-75" vertex="1">
          <mxGeometry y="110" width="160" height="8" as="geometry" />
        </mxCell>
        <mxCell id="Mwr4hlmYIwkJtcKE7npp-78" value="+String getDescription() " style="text;strokeColor=none;fillColor=none;align=left;verticalAlign=top;spacingLeft=4;spacingRight=4;overflow=hidden;rotatable=0;points=[[0,0.5],[1,0.5]];portConstraint=eastwest;" parent="Mwr4hlmYIwkJtcKE7npp-75" vertex="1">
          <mxGeometry y="118" width="160" height="18" as="geometry" />
        </mxCell>
        <mxCell id="Mwr4hlmYIwkJtcKE7npp-79" value="+double cost()&#xa;&#xa;+hasYanmai()&#xa;+setYanmai() &#xa;+hasMocha()&#xa;+setMocha()&#xa;+hasKeke()&#xa;+setKeke()&#xa;+hasYuyuan()&#xa;+setYuyuan()" style="text;strokeColor=none;fillColor=none;align=left;verticalAlign=top;spacingLeft=4;spacingRight=4;overflow=hidden;rotatable=0;points=[[0,0.5],[1,0.5]];portConstraint=eastwest;" parent="Mwr4hlmYIwkJtcKE7npp-75" vertex="1">
          <mxGeometry y="136" width="160" height="154" as="geometry" />
        </mxCell>
        <mxCell id="Mwr4hlmYIwkJtcKE7npp-80" value="" style="strokeWidth=2;html=1;shape=mxgraph.flowchart.annotation_2;align=left;labelPosition=right;pointerEvents=1;rotation=-180;" parent="oOpWb501PFXFz8006HvH-1" vertex="1">
          <mxGeometry x="1370" y="270" width="20" height="110" as="geometry" />
        </mxCell>
        <mxCell id="Mwr4hlmYIwkJtcKE7npp-81" value="用于取得和设置配料的boolean值" style="text;html=1;align=center;verticalAlign=middle;resizable=0;points=[];autosize=1;strokeColor=none;fillColor=none;" parent="oOpWb501PFXFz8006HvH-1" vertex="1">
          <mxGeometry x="1390" y="315" width="190" height="20" as="geometry" />
        </mxCell>
        <mxCell id="Mwr4hlmYIwkJtcKE7npp-82" value="" style="strokeWidth=2;html=1;shape=mxgraph.flowchart.annotation_2;align=left;labelPosition=right;pointerEvents=1;rotation=-180;" parent="oOpWb501PFXFz8006HvH-1" vertex="1">
          <mxGeometry x="1370" y="150" width="20" height="50" as="geometry" />
        </mxCell>
        <mxCell id="Mwr4hlmYIwkJtcKE7npp-83" value="用于各种配料是否使用的boolean值" style="text;html=1;align=center;verticalAlign=middle;resizable=0;points=[];autosize=1;strokeColor=none;fillColor=none;" parent="oOpWb501PFXFz8006HvH-1" vertex="1">
          <mxGeometry x="1390" y="165" width="200" height="20" as="geometry" />
        </mxCell>
        <mxCell id="Mwr4hlmYIwkJtcKE7npp-87" value="" style="line;strokeWidth=1;rotatable=0;dashed=0;labelPosition=right;align=left;verticalAlign=middle;spacingTop=0;spacingLeft=6;points=[];portConstraint=eastwest;" parent="oOpWb501PFXFz8006HvH-1" vertex="1">
          <mxGeometry x="1280" y="236" width="120" height="10" as="geometry" />
        </mxCell>
        <mxCell id="Mwr4hlmYIwkJtcKE7npp-88" value="&lt;div style=&quot;text-align: justify&quot;&gt;&lt;span&gt;不是一个抽象方法，本父类需要能够计算所加配料钱。&lt;/span&gt;&lt;/div&gt;&lt;div style=&quot;text-align: justify&quot;&gt;&lt;span style=&quot;text-align: left&quot;&gt;子类还是会覆盖父类的cost()方法，但是会调用父类的计算配料的费用。&lt;/span&gt;&lt;/div&gt;&lt;div style=&quot;text-align: justify&quot;&gt;&lt;span style=&quot;text-align: left&quot;&gt;子类实现各自奶茶品种的价格，再调用父类的cost()加入配料前。&lt;/span&gt;&lt;/div&gt;" style="text;html=1;align=left;verticalAlign=middle;resizable=0;points=[];autosize=1;strokeColor=none;fillColor=none;" parent="oOpWb501PFXFz8006HvH-1" vertex="1">
          <mxGeometry x="1410" y="216" width="390" height="50" as="geometry" />
        </mxCell>
        <mxCell id="Mwr4hlmYIwkJtcKE7npp-89" value="Wulong" style="swimlane;fontStyle=1;align=center;verticalAlign=top;childLayout=stackLayout;horizontal=1;startSize=26;horizontalStack=0;resizeParent=1;resizeParentMax=0;resizeLast=0;collapsible=1;marginBottom=0;" parent="oOpWb501PFXFz8006HvH-1" vertex="1">
          <mxGeometry x="950" y="492" width="160" height="52" as="geometry" />
        </mxCell>
        <mxCell id="Mwr4hlmYIwkJtcKE7npp-90" value="cost()" style="text;strokeColor=none;fillColor=none;align=left;verticalAlign=top;spacingLeft=4;spacingRight=4;overflow=hidden;rotatable=0;points=[[0,0.5],[1,0.5]];portConstraint=eastwest;" parent="Mwr4hlmYIwkJtcKE7npp-89" vertex="1">
          <mxGeometry y="26" width="160" height="26" as="geometry" />
        </mxCell>
        <mxCell id="Mwr4hlmYIwkJtcKE7npp-91" value="Mocha" style="swimlane;fontStyle=1;align=center;verticalAlign=top;childLayout=stackLayout;horizontal=1;startSize=26;horizontalStack=0;resizeParent=1;resizeParentMax=0;resizeLast=0;collapsible=1;marginBottom=0;" parent="oOpWb501PFXFz8006HvH-1" vertex="1">
          <mxGeometry x="1180" y="490" width="160" height="52" as="geometry" />
        </mxCell>
        <mxCell id="Mwr4hlmYIwkJtcKE7npp-92" value="cost()" style="text;strokeColor=none;fillColor=none;align=left;verticalAlign=top;spacingLeft=4;spacingRight=4;overflow=hidden;rotatable=0;points=[[0,0.5],[1,0.5]];portConstraint=eastwest;" parent="Mwr4hlmYIwkJtcKE7npp-91" vertex="1">
          <mxGeometry y="26" width="160" height="26" as="geometry" />
        </mxCell>
        <mxCell id="Mwr4hlmYIwkJtcKE7npp-93" value="Yuyuan" style="swimlane;fontStyle=1;align=center;verticalAlign=top;childLayout=stackLayout;horizontal=1;startSize=26;horizontalStack=0;resizeParent=1;resizeParentMax=0;resizeLast=0;collapsible=1;marginBottom=0;" parent="oOpWb501PFXFz8006HvH-1" vertex="1">
          <mxGeometry x="1590" y="490" width="160" height="48" as="geometry" />
        </mxCell>
        <mxCell id="Mwr4hlmYIwkJtcKE7npp-94" value="cost()" style="text;strokeColor=none;fillColor=none;align=left;verticalAlign=top;spacingLeft=4;spacingRight=4;overflow=hidden;rotatable=0;points=[[0,0.5],[1,0.5]];portConstraint=eastwest;" parent="Mwr4hlmYIwkJtcKE7npp-93" vertex="1">
          <mxGeometry y="26" width="160" height="22" as="geometry" />
        </mxCell>
        <mxCell id="Mwr4hlmYIwkJtcKE7npp-95" value="Keke" style="swimlane;fontStyle=1;align=center;verticalAlign=top;childLayout=stackLayout;horizontal=1;startSize=26;horizontalStack=0;resizeParent=1;resizeParentMax=0;resizeLast=0;collapsible=1;marginBottom=0;" parent="oOpWb501PFXFz8006HvH-1" vertex="1">
          <mxGeometry x="1380" y="490" width="160" height="48" as="geometry" />
        </mxCell>
        <mxCell id="Mwr4hlmYIwkJtcKE7npp-96" value="cost()" style="text;strokeColor=none;fillColor=none;align=left;verticalAlign=top;spacingLeft=4;spacingRight=4;overflow=hidden;rotatable=0;points=[[0,0.5],[1,0.5]];portConstraint=eastwest;" parent="Mwr4hlmYIwkJtcKE7npp-95" vertex="1">
          <mxGeometry y="26" width="160" height="22" as="geometry" />
        </mxCell>
        <mxCell id="Mwr4hlmYIwkJtcKE7npp-98" value="Extends" style="endArrow=block;endSize=16;endFill=0;html=1;entryX=0.15;entryY=0.994;entryDx=0;entryDy=0;entryPerimeter=0;" parent="oOpWb501PFXFz8006HvH-1" target="Mwr4hlmYIwkJtcKE7npp-79" edge="1">
          <mxGeometry width="160" relative="1" as="geometry">
            <mxPoint x="1030" y="490" as="sourcePoint" />
            <mxPoint x="800" y="372" as="targetPoint" />
          </mxGeometry>
        </mxCell>
        <mxCell id="Mwr4hlmYIwkJtcKE7npp-99" value="Extends" style="endArrow=block;endSize=16;endFill=0;html=1;entryX=0.288;entryY=1;entryDx=0;entryDy=0;entryPerimeter=0;exitX=0.5;exitY=0;exitDx=0;exitDy=0;" parent="oOpWb501PFXFz8006HvH-1" source="Mwr4hlmYIwkJtcKE7npp-91" target="Mwr4hlmYIwkJtcKE7npp-79" edge="1">
          <mxGeometry width="160" relative="1" as="geometry">
            <mxPoint x="1040" y="500" as="sourcePoint" />
            <mxPoint x="1224" y="389.076" as="targetPoint" />
          </mxGeometry>
        </mxCell>
        <mxCell id="Mwr4hlmYIwkJtcKE7npp-100" value="Extends" style="endArrow=block;endSize=16;endFill=0;html=1;entryX=0.544;entryY=1.019;entryDx=0;entryDy=0;entryPerimeter=0;exitX=0.5;exitY=0;exitDx=0;exitDy=0;" parent="oOpWb501PFXFz8006HvH-1" source="Mwr4hlmYIwkJtcKE7npp-95" target="Mwr4hlmYIwkJtcKE7npp-79" edge="1">
          <mxGeometry width="160" relative="1" as="geometry">
            <mxPoint x="1050" y="510" as="sourcePoint" />
            <mxPoint x="1234" y="399.076" as="targetPoint" />
          </mxGeometry>
        </mxCell>
        <mxCell id="Mwr4hlmYIwkJtcKE7npp-101" value="Extends" style="endArrow=block;endSize=16;endFill=0;html=1;entryX=0.975;entryY=1.013;entryDx=0;entryDy=0;entryPerimeter=0;exitX=0.5;exitY=0;exitDx=0;exitDy=0;" parent="oOpWb501PFXFz8006HvH-1" source="Mwr4hlmYIwkJtcKE7npp-93" target="Mwr4hlmYIwkJtcKE7npp-79" edge="1">
          <mxGeometry width="160" relative="1" as="geometry">
            <mxPoint x="1060" y="520" as="sourcePoint" />
            <mxPoint x="1244" y="409.076" as="targetPoint" />
          </mxGeometry>
        </mxCell>
        <mxCell id="Mwr4hlmYIwkJtcKE7npp-102" value="&lt;div style=&quot;text-align: left&quot;&gt;&lt;span&gt;加入的子类每个类代表菜单的一种奶茶：&lt;/span&gt;&lt;/div&gt;&lt;div style=&quot;text-align: left&quot;&gt;&lt;span&gt;子类的每个cost方法会调用父类的cost实现，cost计算本品种奶茶价格，&lt;/span&gt;&lt;/div&gt;&lt;div style=&quot;text-align: left&quot;&gt;&lt;span&gt;并且调用父类的cost方法加入配料的费用。&lt;/span&gt;&lt;/div&gt;" style="text;html=1;align=center;verticalAlign=middle;resizable=0;points=[];autosize=1;strokeColor=none;fillColor=none;" parent="oOpWb501PFXFz8006HvH-1" vertex="1">
          <mxGeometry x="1540" y="380" width="390" height="50" as="geometry" />
        </mxCell>
        <mxCell id="xWImn3TrqVZ1JQtZ4iAm-0" value="cost()&lt;br&gt;&lt;br&gt;YuyuanNaiCha" style="ellipse;whiteSpace=wrap;html=1;hachureGap=4;pointerEvents=0;" vertex="1" parent="oOpWb501PFXFz8006HvH-1">
          <mxGeometry x="170" y="1410" width="120" height="80" as="geometry" />
        </mxCell>
        <mxCell id="xWImn3TrqVZ1JQtZ4iAm-1" value="芋圆奶茶继承自Beverage饮料父类&lt;br&gt;&lt;div&gt;&lt;span&gt;（父类有description成员变量、cost()抽象成员函数和&amp;nbsp;&lt;/span&gt;&lt;span&gt;getDescription() 成员函数）&lt;/span&gt;&lt;/div&gt;&lt;div&gt;因此要重写一个cost()函数&lt;/div&gt;" style="text;html=1;align=left;verticalAlign=middle;resizable=0;points=[];autosize=1;strokeColor=none;fillColor=none;" vertex="1" parent="oOpWb501PFXFz8006HvH-1">
          <mxGeometry x="310" y="1425" width="450" height="50" as="geometry" />
        </mxCell>
        <mxCell id="xWImn3TrqVZ1JQtZ4iAm-2" value="cost()&lt;br&gt;&lt;br&gt;YuyuanNaiCha" style="ellipse;whiteSpace=wrap;html=1;hachureGap=4;pointerEvents=0;" vertex="1" parent="oOpWb501PFXFz8006HvH-1">
          <mxGeometry x="170" y="1600" width="120" height="80" as="geometry" />
        </mxCell>
        <mxCell id="xWImn3TrqVZ1JQtZ4iAm-4" value="cost()" style="text;html=1;align=center;verticalAlign=middle;resizable=0;points=[];autosize=1;strokeColor=none;fillColor=none;" vertex="1" parent="oOpWb501PFXFz8006HvH-1">
          <mxGeometry x="300" y="1600" width="50" height="20" as="geometry" />
        </mxCell>
        <mxCell id="xWImn3TrqVZ1JQtZ4iAm-5" value="Yeguo" style="text;html=1;align=center;verticalAlign=middle;resizable=0;points=[];autosize=1;strokeColor=none;fillColor=none;" vertex="1" parent="oOpWb501PFXFz8006HvH-1">
          <mxGeometry x="300" y="1670" width="50" height="20" as="geometry" />
        </mxCell>
        <mxCell id="xWImn3TrqVZ1JQtZ4iAm-6" value="Yeguo对象是一个装饰者，他的类型反映出了所装饰的对象。&lt;br&gt;反映的含义就是他的类型与被装饰者类型一样&lt;br&gt;YuyuanNaiCha与Yeguo的类型一致" style="text;html=1;align=left;verticalAlign=middle;resizable=0;points=[];autosize=1;strokeColor=none;fillColor=none;" vertex="1" parent="oOpWb501PFXFz8006HvH-1">
          <mxGeometry x="450" y="1585" width="340" height="50" as="geometry" />
        </mxCell>
        <mxCell id="xWImn3TrqVZ1JQtZ4iAm-7" value="类型一致，因此Yeguo对象也有一个cost()方法。&lt;br&gt;这里体现的是多态的性质，可以将Yeguo包装的任何Beverage饮料类型对象。&lt;br&gt;因为Yeguo也是Beverage的子类" style="text;html=1;align=left;verticalAlign=middle;resizable=0;points=[];autosize=1;strokeColor=none;fillColor=none;" vertex="1" parent="oOpWb501PFXFz8006HvH-1">
          <mxGeometry x="450" y="1660" width="420" height="50" as="geometry" />
        </mxCell>
        <mxCell id="xWImn3TrqVZ1JQtZ4iAm-9" value="" style="ellipse;whiteSpace=wrap;html=1;hachureGap=4;pointerEvents=0;align=left;" vertex="1" parent="oOpWb501PFXFz8006HvH-1">
          <mxGeometry x="150" y="1770" width="270" height="135" as="geometry" />
        </mxCell>
        <mxCell id="xWImn3TrqVZ1JQtZ4iAm-10" value="cost()&lt;br&gt;&lt;br&gt;YuyuanNaiCha" style="ellipse;whiteSpace=wrap;html=1;hachureGap=4;pointerEvents=0;" vertex="1" parent="oOpWb501PFXFz8006HvH-1">
          <mxGeometry x="170" y="1795" width="120" height="80" as="geometry" />
        </mxCell>
        <mxCell id="xWImn3TrqVZ1JQtZ4iAm-11" value="cost()" style="text;html=1;align=center;verticalAlign=middle;resizable=0;points=[];autosize=1;strokeColor=none;fillColor=none;" vertex="1" parent="oOpWb501PFXFz8006HvH-1">
          <mxGeometry x="300" y="1795" width="50" height="20" as="geometry" />
        </mxCell>
        <mxCell id="xWImn3TrqVZ1JQtZ4iAm-12" value="Yeguo" style="text;html=1;align=center;verticalAlign=middle;resizable=0;points=[];autosize=1;strokeColor=none;fillColor=none;" vertex="1" parent="oOpWb501PFXFz8006HvH-1">
          <mxGeometry x="300" y="1865" width="50" height="20" as="geometry" />
        </mxCell>
        <mxCell id="xWImn3TrqVZ1JQtZ4iAm-14" value="cost()" style="text;html=1;align=center;verticalAlign=middle;resizable=0;points=[];autosize=1;strokeColor=none;fillColor=none;" vertex="1" parent="oOpWb501PFXFz8006HvH-1">
          <mxGeometry x="430" y="1795" width="50" height="20" as="geometry" />
        </mxCell>
        <mxCell id="xWImn3TrqVZ1JQtZ4iAm-15" value="Xiancao" style="text;html=1;align=center;verticalAlign=middle;resizable=0;points=[];autosize=1;strokeColor=none;fillColor=none;" vertex="1" parent="oOpWb501PFXFz8006HvH-1">
          <mxGeometry x="430" y="1865" width="60" height="20" as="geometry" />
        </mxCell>
        <mxCell id="xWImn3TrqVZ1JQtZ4iAm-16" value="Xiancao也是一个装饰者。&lt;br&gt;因此反映Yuyuan的类型。&lt;br&gt;包括了一个cost()方法。" style="text;html=1;align=left;verticalAlign=middle;resizable=0;points=[];autosize=1;strokeColor=none;fillColor=none;" vertex="1" parent="oOpWb501PFXFz8006HvH-1">
          <mxGeometry x="560" y="1810" width="150" height="50" as="geometry" />
        </mxCell>
        <mxCell id="xWImn3TrqVZ1JQtZ4iAm-17" value="被Yeguo和Xiancao包裹起来的YuyuanNaiCha对象仍然是一个Beverage饮料类型的对象&lt;br&gt;任何具有YuyuanNaicha的一切行为包括调用的cost方法" style="text;html=1;align=center;verticalAlign=middle;resizable=0;points=[];autosize=1;strokeColor=none;fillColor=none;" vertex="1" parent="oOpWb501PFXFz8006HvH-1">
          <mxGeometry x="230" y="1940" width="480" height="30" as="geometry" />
        </mxCell>
        <mxCell id="xWImn3TrqVZ1JQtZ4iAm-18" value="" style="ellipse;whiteSpace=wrap;html=1;hachureGap=4;pointerEvents=0;align=left;" vertex="1" parent="oOpWb501PFXFz8006HvH-1">
          <mxGeometry x="140" y="2050" width="410" height="170" as="geometry" />
        </mxCell>
        <mxCell id="xWImn3TrqVZ1JQtZ4iAm-19" value="" style="ellipse;whiteSpace=wrap;html=1;hachureGap=4;pointerEvents=0;align=left;" vertex="1" parent="oOpWb501PFXFz8006HvH-1">
          <mxGeometry x="150" y="2066" width="270" height="135" as="geometry" />
        </mxCell>
        <mxCell id="xWImn3TrqVZ1JQtZ4iAm-20" value="" style="ellipse;whiteSpace=wrap;html=1;hachureGap=4;pointerEvents=0;" vertex="1" parent="oOpWb501PFXFz8006HvH-1">
          <mxGeometry x="170" y="2091" width="120" height="80" as="geometry" />
        </mxCell>
        <mxCell id="xWImn3TrqVZ1JQtZ4iAm-21" value="cost()" style="text;html=1;align=center;verticalAlign=middle;resizable=0;points=[];autosize=1;strokeColor=none;fillColor=none;" vertex="1" parent="oOpWb501PFXFz8006HvH-1">
          <mxGeometry x="300" y="2091" width="50" height="20" as="geometry" />
        </mxCell>
        <mxCell id="xWImn3TrqVZ1JQtZ4iAm-22" value="Yeguo" style="text;html=1;align=center;verticalAlign=middle;resizable=0;points=[];autosize=1;strokeColor=none;fillColor=none;" vertex="1" parent="oOpWb501PFXFz8006HvH-1">
          <mxGeometry x="300" y="2161" width="50" height="20" as="geometry" />
        </mxCell>
        <mxCell id="xWImn3TrqVZ1JQtZ4iAm-23" value="cost()" style="text;html=1;align=center;verticalAlign=middle;resizable=0;points=[];autosize=1;strokeColor=none;fillColor=none;" vertex="1" parent="oOpWb501PFXFz8006HvH-1">
          <mxGeometry x="430" y="2091" width="50" height="20" as="geometry" />
        </mxCell>
        <mxCell id="xWImn3TrqVZ1JQtZ4iAm-24" value="Xiancao" style="text;html=1;align=center;verticalAlign=middle;resizable=0;points=[];autosize=1;strokeColor=none;fillColor=none;" vertex="1" parent="oOpWb501PFXFz8006HvH-1">
          <mxGeometry x="430" y="2161" width="60" height="20" as="geometry" />
        </mxCell>
        <mxCell id="xWImn3TrqVZ1JQtZ4iAm-25" value="" style="curved=1;endArrow=classic;html=1;startSize=14;endSize=14;sourcePerimeterSpacing=8;targetPerimeterSpacing=8;" edge="1" parent="oOpWb501PFXFz8006HvH-1">
          <mxGeometry width="50" height="50" relative="1" as="geometry">
            <mxPoint x="570" y="2060" as="sourcePoint" />
            <mxPoint x="480" y="2100" as="targetPoint" />
            <Array as="points">
              <mxPoint x="570" y="2060" />
              <mxPoint x="520" y="2040" />
            </Array>
          </mxGeometry>
        </mxCell>
        <mxCell id="xWImn3TrqVZ1JQtZ4iAm-26" value="1.调用最外层的装饰者Xiancao的cost()" style="text;html=1;align=center;verticalAlign=middle;resizable=0;points=[];autosize=1;strokeColor=none;fillColor=none;" vertex="1" parent="oOpWb501PFXFz8006HvH-1">
          <mxGeometry x="560" y="2066" width="220" height="20" as="geometry" />
        </mxCell>
        <mxCell id="xWImn3TrqVZ1JQtZ4iAm-29" value="" style="curved=1;endArrow=classic;html=1;startSize=14;endSize=14;sourcePerimeterSpacing=8;targetPerimeterSpacing=8;entryX=0.78;entryY=0.1;entryDx=0;entryDy=0;entryPerimeter=0;exitX=0.42;exitY=0.1;exitDx=0;exitDy=0;exitPerimeter=0;" edge="1" parent="oOpWb501PFXFz8006HvH-1" source="xWImn3TrqVZ1JQtZ4iAm-23" target="xWImn3TrqVZ1JQtZ4iAm-21">
          <mxGeometry width="50" height="50" relative="1" as="geometry">
            <mxPoint x="400" y="2080" as="sourcePoint" />
            <mxPoint x="450" y="2030" as="targetPoint" />
            <Array as="points">
              <mxPoint x="450" y="2080" />
              <mxPoint x="390" y="2060" />
            </Array>
          </mxGeometry>
        </mxCell>
        <mxCell id="xWImn3TrqVZ1JQtZ4iAm-30" value="" style="curved=1;endArrow=classic;html=1;startSize=14;endSize=14;sourcePerimeterSpacing=8;targetPerimeterSpacing=8;exitX=0.28;exitY=0.1;exitDx=0;exitDy=0;exitPerimeter=0;entryX=0.42;entryY=0.1;entryDx=0;entryDy=0;entryPerimeter=0;" edge="1" parent="oOpWb501PFXFz8006HvH-1" source="xWImn3TrqVZ1JQtZ4iAm-21" target="xWImn3TrqVZ1JQtZ4iAm-31">
          <mxGeometry width="50" height="50" relative="1" as="geometry">
            <mxPoint x="332" y="2092.5" as="sourcePoint" />
            <mxPoint x="230" y="2030" as="targetPoint" />
            <Array as="points">
              <mxPoint x="271" y="2059.5" />
            </Array>
          </mxGeometry>
        </mxCell>
        <mxCell id="xWImn3TrqVZ1JQtZ4iAm-31" value="cost()" style="text;html=1;align=center;verticalAlign=middle;resizable=0;points=[];autosize=1;strokeColor=none;fillColor=none;" vertex="1" parent="oOpWb501PFXFz8006HvH-1">
          <mxGeometry x="205" y="2100" width="50" height="20" as="geometry" />
        </mxCell>
        <mxCell id="xWImn3TrqVZ1JQtZ4iAm-32" value="YuyuanNaiCha" style="text;html=1;align=center;verticalAlign=middle;resizable=0;points=[];autosize=1;strokeColor=none;fillColor=none;" vertex="1" parent="oOpWb501PFXFz8006HvH-1">
          <mxGeometry x="180" y="2141" width="100" height="20" as="geometry" />
        </mxCell>
        <mxCell id="xWImn3TrqVZ1JQtZ4iAm-34" value="" style="curved=1;endArrow=classic;html=1;startSize=14;endSize=14;sourcePerimeterSpacing=8;targetPerimeterSpacing=8;entryX=0.38;entryY=1.1;entryDx=0;entryDy=0;entryPerimeter=0;exitX=0.36;exitY=1.15;exitDx=0;exitDy=0;exitPerimeter=0;" edge="1" parent="oOpWb501PFXFz8006HvH-1" source="xWImn3TrqVZ1JQtZ4iAm-31" target="xWImn3TrqVZ1JQtZ4iAm-21">
          <mxGeometry width="50" height="50" relative="1" as="geometry">
            <mxPoint x="230" y="2310" as="sourcePoint" />
            <mxPoint x="280" y="2260" as="targetPoint" />
            <Array as="points">
              <mxPoint x="280" y="2160" />
            </Array>
          </mxGeometry>
        </mxCell>
        <mxCell id="xWImn3TrqVZ1JQtZ4iAm-35" value="" style="curved=1;endArrow=classic;html=1;startSize=14;endSize=14;sourcePerimeterSpacing=8;targetPerimeterSpacing=8;entryX=0.38;entryY=1.1;entryDx=0;entryDy=0;entryPerimeter=0;exitX=0.36;exitY=1.15;exitDx=0;exitDy=0;exitPerimeter=0;" edge="1" parent="oOpWb501PFXFz8006HvH-1">
          <mxGeometry width="50" height="50" relative="1" as="geometry">
            <mxPoint x="340" y="2117.5" as="sourcePoint" />
            <mxPoint x="436" y="2107.5" as="targetPoint" />
            <Array as="points">
              <mxPoint x="397" y="2154.5" />
            </Array>
          </mxGeometry>
        </mxCell>
        <mxCell id="xWImn3TrqVZ1JQtZ4iAm-36" value="" style="curved=1;endArrow=classic;html=1;startSize=14;endSize=14;sourcePerimeterSpacing=8;targetPerimeterSpacing=8;exitX=0.36;exitY=1.15;exitDx=0;exitDy=0;exitPerimeter=0;" edge="1" parent="oOpWb501PFXFz8006HvH-1">
          <mxGeometry width="50" height="50" relative="1" as="geometry">
            <mxPoint x="464" y="2121" as="sourcePoint" />
            <mxPoint x="590" y="2140" as="targetPoint" />
            <Array as="points">
              <mxPoint x="521" y="2158" />
            </Array>
          </mxGeometry>
        </mxCell>
        <mxCell id="xWImn3TrqVZ1JQtZ4iAm-38" value="+13" style="text;html=1;align=center;verticalAlign=middle;resizable=0;points=[];autosize=1;strokeColor=none;fillColor=none;" vertex="1" parent="oOpWb501PFXFz8006HvH-1">
          <mxGeometry x="250" y="2121" width="40" height="20" as="geometry" />
        </mxCell>
        <mxCell id="xWImn3TrqVZ1JQtZ4iAm-39" value="+2" style="text;html=1;align=center;verticalAlign=middle;resizable=0;points=[];autosize=1;strokeColor=none;fillColor=none;" vertex="1" parent="oOpWb501PFXFz8006HvH-1">
          <mxGeometry x="370" y="2111" width="30" height="20" as="geometry" />
        </mxCell>
        <mxCell id="xWImn3TrqVZ1JQtZ4iAm-40" value="+3" style="text;html=1;align=center;verticalAlign=middle;resizable=0;points=[];autosize=1;strokeColor=none;fillColor=none;" vertex="1" parent="oOpWb501PFXFz8006HvH-1">
          <mxGeometry x="510" y="2120" width="30" height="20" as="geometry" />
        </mxCell>
        <mxCell id="xWImn3TrqVZ1JQtZ4iAm-41" value="返回总价钱18元（13+2+3）" style="text;html=1;align=center;verticalAlign=middle;resizable=0;points=[];autosize=1;strokeColor=none;fillColor=none;" vertex="1" parent="oOpWb501PFXFz8006HvH-1">
          <mxGeometry x="580" y="2131" width="170" height="20" as="geometry" />
        </mxCell>
        <mxCell id="xWImn3TrqVZ1JQtZ4iAm-42" value="2. Xiancao调用Yeguo的cost()" style="text;html=1;align=center;verticalAlign=middle;resizable=0;points=[];autosize=1;strokeColor=none;fillColor=none;" vertex="1" parent="oOpWb501PFXFz8006HvH-1">
          <mxGeometry x="340" y="2010" width="170" height="20" as="geometry" />
        </mxCell>
        <mxCell id="xWImn3TrqVZ1JQtZ4iAm-43" value="3.Yeguo调用YuyuanNaicha的cost()" style="text;html=1;align=center;verticalAlign=middle;resizable=0;points=[];autosize=1;strokeColor=none;fillColor=none;" vertex="1" parent="oOpWb501PFXFz8006HvH-1">
          <mxGeometry x="120" y="2020" width="200" height="20" as="geometry" />
        </mxCell>
        <mxCell id="xWImn3TrqVZ1JQtZ4iAm-44" value="4.YuyuanNaicha返回他的价钱13" style="text;html=1;align=center;verticalAlign=middle;resizable=0;points=[];autosize=1;strokeColor=none;fillColor=none;" vertex="1" parent="oOpWb501PFXFz8006HvH-1">
          <mxGeometry x="135" y="2230" width="190" height="20" as="geometry" />
        </mxCell>
        <mxCell id="xWImn3TrqVZ1JQtZ4iAm-45" value="5.Yeguo在YuyuanNaicha的结果基础上&lt;br&gt;加上自己的价钱2" style="text;html=1;align=left;verticalAlign=middle;resizable=0;points=[];autosize=1;strokeColor=none;fillColor=none;" vertex="1" parent="oOpWb501PFXFz8006HvH-1">
          <mxGeometry x="330" y="2230" width="220" height="30" as="geometry" />
        </mxCell>
        <mxCell id="xWImn3TrqVZ1JQtZ4iAm-46" value="6.Xiancao在Yeguo的返回结果基础上&lt;br&gt;加上自己的价钱3 最后结果18" style="text;html=1;align=center;verticalAlign=middle;resizable=0;points=[];autosize=1;strokeColor=none;fillColor=none;" vertex="1" parent="oOpWb501PFXFz8006HvH-1">
          <mxGeometry x="540" y="2230" width="210" height="30" as="geometry" />
        </mxCell>
        <mxCell id="xWImn3TrqVZ1JQtZ4iAm-47" value="Component" style="swimlane;fontStyle=0;childLayout=stackLayout;horizontal=1;startSize=26;fillColor=none;horizontalStack=0;resizeParent=1;resizeParentMax=0;resizeLast=0;collapsible=1;marginBottom=0;hachureGap=4;pointerEvents=0;align=left;" vertex="1" parent="oOpWb501PFXFz8006HvH-1">
          <mxGeometry x="345" y="2430" width="140" height="104" as="geometry" />
        </mxCell>
        <mxCell id="xWImn3TrqVZ1JQtZ4iAm-48" value="methodA()" style="text;strokeColor=none;fillColor=none;align=left;verticalAlign=top;spacingLeft=4;spacingRight=4;overflow=hidden;rotatable=0;points=[[0,0.5],[1,0.5]];portConstraint=eastwest;" vertex="1" parent="xWImn3TrqVZ1JQtZ4iAm-47">
          <mxGeometry y="26" width="140" height="26" as="geometry" />
        </mxCell>
        <mxCell id="xWImn3TrqVZ1JQtZ4iAm-49" value="methodB()" style="text;strokeColor=none;fillColor=none;align=left;verticalAlign=top;spacingLeft=4;spacingRight=4;overflow=hidden;rotatable=0;points=[[0,0.5],[1,0.5]];portConstraint=eastwest;" vertex="1" parent="xWImn3TrqVZ1JQtZ4iAm-47">
          <mxGeometry y="52" width="140" height="26" as="geometry" />
        </mxCell>
        <mxCell id="xWImn3TrqVZ1JQtZ4iAm-50" value="// 其他方法" style="text;strokeColor=none;fillColor=none;align=left;verticalAlign=top;spacingLeft=4;spacingRight=4;overflow=hidden;rotatable=0;points=[[0,0.5],[1,0.5]];portConstraint=eastwest;" vertex="1" parent="xWImn3TrqVZ1JQtZ4iAm-47">
          <mxGeometry y="78" width="140" height="26" as="geometry" />
        </mxCell>
      </root>
    </mxGraphModel>
  </diagram>
  <diagram id="QEhPYJXKN5oda4yAmZcc" name="Page-4">
    <mxGraphModel dx="460" dy="736" grid="1" gridSize="10" guides="1" tooltips="1" connect="1" arrows="1" fold="1" page="1" pageScale="1" pageWidth="827" pageHeight="1169" math="0" shadow="0">
      <root>
        <mxCell id="vCS55qI0j4JDyWJ8kYXE-0" />
        <mxCell id="vCS55qI0j4JDyWJ8kYXE-1" parent="vCS55qI0j4JDyWJ8kYXE-0" />
      </root>
    </mxGraphModel>
  </diagram>
</mxfile>
